<?xml version="1.0" encoding="UTF-8" standalone="no"?>
<!-- Created with Inkscape (http://www.inkscape.org/) -->

<svg
   width="200mm"
   height="200mm"
   viewBox="0 0 200 200"
   version="1.1"
   id="svg5"
   inkscape:version="1.2.2 (732a01da63, 2022-12-09)"
   sodipodi:docname="sand2.svg"
   xmlns:inkscape="http://www.inkscape.org/namespaces/inkscape"
   xmlns:sodipodi="http://sodipodi.sourceforge.net/DTD/sodipodi-0.dtd"
   xmlns="http://www.w3.org/2000/svg"
   xmlns:svg="http://www.w3.org/2000/svg">
  <sodipodi:namedview
     id="namedview7"
     pagecolor="#ffffff"
     bordercolor="#000000"
     borderopacity="0.25"
     inkscape:showpageshadow="2"
     inkscape:pageopacity="0.0"
     inkscape:pagecheckerboard="0"
     inkscape:deskcolor="#d1d1d1"
     inkscape:document-units="mm"
     showgrid="false"
     inkscape:zoom="1.0181848"
     inkscape:cx="419.37377"
     inkscape:cy="384.99887"
     inkscape:window-width="1920"
     inkscape:window-height="991"
     inkscape:window-x="-9"
     inkscape:window-y="-9"
     inkscape:window-maximized="1"
     inkscape:current-layer="layer4" />
  <defs
     id="defs2" />
  <g
     inkscape:groupmode="layer"
     id="layer3"
     inkscape:label="Background">
    <rect
       style="fill:#e4cd87;fill-opacity:1;stroke:#ff522b;stroke-width:0;stroke-linecap:butt;stroke-linejoin:bevel;stroke-dasharray:none;stroke-opacity:1;paint-order:normal"
       id="rect11023"
       width="200"
       height="200"
       x="5e-07"
       y="5e-07" />
  </g>
  <g
     inkscape:groupmode="layer"
     id="layer4"
     inkscape:label="Details">
    <path
       style="fill:#e4cd87;fill-opacity:1;stroke:#a99300;stroke-width:2;stroke-linejoin:bevel;stroke-dasharray:none;stroke-opacity:1"
       d="m 50.672285,46.254701 c -1.778529,0.550442 -0.74468,0.58307 -1.819005,1.29929 -0.414237,0.276156 -1.995043,0.435895 -2.338721,0.779573 -0.674666,0.674664 0.235548,0.519716 -0.779574,0.519716"
       id="path29741" />
    <path
       style="fill:#e4cd87;fill-opacity:1;stroke:#a99300;stroke-width:2;stroke-linejoin:bevel;stroke-dasharray:none;stroke-opacity:1"
       d="m 111.47902,40.27797 c 1.38591,0 1.38591,0 0,0 z"
       id="path29743" />
    <path
       style="fill:#e4cd87;fill-opacity:1;stroke:#a99300;stroke-width:2;stroke-linejoin:bevel;stroke-dasharray:none;stroke-opacity:1"
       d="m 112.77831,68.862333 c -0.36106,1.579624 -1.20353,2.844726 -2.07886,4.157726"
       id="path29745" />
    <path
       style="fill:#e4cd87;fill-opacity:1;stroke:#a99300;stroke-width:2;stroke-linejoin:bevel;stroke-dasharray:none;stroke-opacity:1"
       d="m 106.54172,94.328405 c -2.32299,-0.559491 -0.53543,2.598579 -1.819,2.598579"
       id="path29747" />
    <path
       style="fill:#e4cd87;fill-opacity:1;stroke:#a99300;stroke-width:2;stroke-linejoin:bevel;stroke-dasharray:none;stroke-opacity:1"
       d="m 129.92893,129.40922 c -0.43309,0.86619 -0.86619,1.73238 -1.29929,2.59858"
       id="path29749" />
    <path
       style="fill:#e4cd87;fill-opacity:1;stroke:#a99300;stroke-width:2;stroke-linejoin:bevel;stroke-dasharray:none;stroke-opacity:1"
       d="m 155.65486,149.15842 c 0.95579,2.99092 2.88443,5.25491 4.9373,7.53587"
       id="path29751" />
    <path
       style="fill:#e4cd87;fill-opacity:1;stroke:#a99300;stroke-width:2;stroke-linejoin:bevel;stroke-dasharray:none;stroke-opacity:1"
       d="m 94.328405,161.37174 c -2.266765,0.56669 -1.43999,0.20027 -2.598579,0.77957"
       id="path29755" />
    <path
       style="fill:#e4cd87;fill-opacity:1;stroke:#a99300;stroke-width:2;stroke-linejoin:bevel;stroke-dasharray:none;stroke-opacity:1"
       d="m 59.507453,157.73373 c 0.433096,-0.17324 0.866193,-0.34648 1.299289,-0.51972"
       id="path29757" />
    <path
       style="fill:#e4cd87;fill-opacity:1;stroke:#a99300;stroke-width:2;stroke-linejoin:bevel;stroke-dasharray:none;stroke-opacity:1"
       d="m 70.421481,120.83391 c -0.519716,0 -1.039432,0 -1.559148,0"
       id="path29759" />
    <path
       style="fill:#e4cd87;fill-opacity:1;stroke:#a99300;stroke-width:2;stroke-linejoin:bevel;stroke-dasharray:none;stroke-opacity:1"
       d="m 37.159676,127.0705 c -4.656286,1.94011 -2.123104,0.77242 -7.535879,3.63801"
       id="path29761" />
    <path
       style="fill:#e4cd87;fill-opacity:1;stroke:#a99300;stroke-width:2;stroke-linejoin:bevel;stroke-dasharray:none;stroke-opacity:1"
       d="m 149.67813,95.887552 c 1.38591,0 2.77182,0 4.15773,0"
       id="path29763" />
    <path
       style="fill:#e4cd87;fill-opacity:1;stroke:#a99300;stroke-width:2;stroke-linejoin:bevel;stroke-dasharray:none;stroke-opacity:1"
       d="m 161.63159,77.177785 c 0.0832,-1.752899 -0.0949,-3.497982 -0.51971,-5.197157"
       id="path29765" />
    <path
       style="fill:#e4cd87;fill-opacity:1;stroke:#a99300;stroke-width:2;stroke-linejoin:bevel;stroke-dasharray:none;stroke-opacity:1"
       d="m 163.4506,49.372996 c 1.93679,-0.553371 1.3731,-0.07382 2.07886,-0.779574"
       id="path29769" />
    <path
       style="fill:#e4cd87;fill-opacity:1;stroke:#a99300;stroke-width:2;stroke-linejoin:bevel;stroke-dasharray:none;stroke-opacity:1"
       d="m 154.09572,28.06465 c 1.35995,-1.169006 3.20885,-0.359976 4.67744,-0.779573 2.15678,-0.616226 0.48954,-0.519716 2.07886,-0.519716"
       id="path29771" />
    <path
       style="fill:#e4cd87;fill-opacity:1;stroke:#a99300;stroke-width:2;stroke-linejoin:bevel;stroke-dasharray:none;stroke-opacity:1"
       d="m 169.68719,22.867492 c 2.1172,-0.732607 4.29653,-0.779573 6.49644,-0.779573"
       id="path29773" />
    <path
       style="fill:#e4cd87;fill-opacity:1;stroke:#a99300;stroke-width:2;stroke-linejoin:bevel;stroke-dasharray:none;stroke-opacity:1"
       d="M 73.020059,23.647066 C 71.863346,22.707978 70.636777,22.087919 69.122191,22.087919"
       id="path29775" />
    <path
       style="fill:#e4cd87;fill-opacity:1;stroke:#a99300;stroke-width:2;stroke-linejoin:bevel;stroke-dasharray:none;stroke-opacity:1"
       d="m 81.335511,57.948305 c -2.633903,0.562341 -4.759251,2.27937 -7.27602,3.118295"
       id="path29777" />
    <path
       style="fill:#e4cd87;fill-opacity:1;stroke:#a99300;stroke-width:2;stroke-linejoin:bevel;stroke-dasharray:none;stroke-opacity:1"
       d="m 36.63996,76.917927 c 2.047785,-0.59078 4.601236,4.249555 6.496447,5.197158"
       id="path29779" />
    <path
       style="fill:#e4cd87;fill-opacity:1;stroke:#a99300;stroke-width:2;stroke-linejoin:bevel;stroke-dasharray:none;stroke-opacity:1"
       d="m 106.54172,135.12609 2.33873,4.15773"
       id="path29781" />
    <path
       style="fill:#e4cd87;fill-opacity:1;stroke:#a99300;stroke-width:2;stroke-linejoin:bevel;stroke-dasharray:none;stroke-opacity:1"
       d="m 125.51135,174.36463 c -0.25986,0.4331 -0.51972,0.86619 -0.77957,1.29929"
       id="path29783" />
    <path
       style="fill:#e4cd87;fill-opacity:1;stroke:#a99300;stroke-width:2;stroke-linejoin:bevel;stroke-dasharray:none;stroke-opacity:1"
       d="m 172.54562,187.35752 c 0.85586,1.18567 2.32439,0.51255 3.37816,1.03943 2.20136,1.10068 0.35486,1.03944 1.29929,1.03944"
       id="path29785" />
    <path
       style="fill:#e4cd87;fill-opacity:1;stroke:#a99300;stroke-width:2;stroke-linejoin:bevel;stroke-dasharray:none;stroke-opacity:1"
       d="m 8.5753095,188.39695 c 1.1260508,0 2.2521015,0 3.3781525,0"
       id="path29787" />
    <path
       style="fill:#e4cd87;fill-opacity:1;stroke:#a99300;stroke-width:2;stroke-linejoin:bevel;stroke-dasharray:none;stroke-opacity:1"
       d="m 11.953462,77.957359 c -1.65427,-0.605772 -2.5561932,1.559147 -3.8978682,1.559147"
       id="path29789" />
    <path
       style="fill:#e4cd87;fill-opacity:1;stroke:#a99300;stroke-width:2;stroke-linejoin:bevel;stroke-dasharray:none;stroke-opacity:1"
       d="m 7.0161623,27.804792 c 1.5296242,0.637514 1.9534605,-1.066323 3.1182947,-1.299289 0.254811,-0.05096 0.53305,0.08217 0.779573,0 0.108552,-0.03618 0.02471,-1.039432 1.039432,-1.039432"
       id="path29791" />
  </g>
</svg>
