<?xml version="1.0" encoding="UTF-8" standalone="no"?>
<!-- Created with Inkscape (http://www.inkscape.org/) -->

<svg
   width="200mm"
   height="200mm"
   viewBox="0 0 200 200"
   version="1.1"
   id="svg5"
   inkscape:version="1.2.2 (732a01da63, 2022-12-09)"
   sodipodi:docname="sand1.svg"
   xmlns:inkscape="http://www.inkscape.org/namespaces/inkscape"
   xmlns:sodipodi="http://sodipodi.sourceforge.net/DTD/sodipodi-0.dtd"
   xmlns="http://www.w3.org/2000/svg"
   xmlns:svg="http://www.w3.org/2000/svg">
  <sodipodi:namedview
     id="namedview7"
     pagecolor="#ffffff"
     bordercolor="#000000"
     borderopacity="0.25"
     inkscape:showpageshadow="2"
     inkscape:pageopacity="0.0"
     inkscape:pagecheckerboard="0"
     inkscape:deskcolor="#d1d1d1"
     inkscape:document-units="mm"
     showgrid="false"
     inkscape:zoom="1.0181848"
     inkscape:cx="419.37377"
     inkscape:cy="384.99887"
     inkscape:window-width="1920"
     inkscape:window-height="991"
     inkscape:window-x="-9"
     inkscape:window-y="-9"
     inkscape:window-maximized="1"
     inkscape:current-layer="layer4" />
  <defs
     id="defs2" />
  <g
     inkscape:groupmode="layer"
     id="layer3"
     inkscape:label="Background">
    <rect
       style="fill:#e4cd87;fill-opacity:1;stroke:#ff522b;stroke-width:0;stroke-linecap:butt;stroke-linejoin:bevel;stroke-dasharray:none;stroke-opacity:1;paint-order:normal"
       id="rect11023"
       width="200"
       height="200"
       x="5e-07"
       y="5e-07" />
  </g>
  <g
     inkscape:groupmode="layer"
     id="layer4"
     inkscape:label="Details">
    <path
       style="fill:#e4cd87;fill-opacity:1;stroke:#a99300;stroke-width:2;stroke-linejoin:bevel;stroke-dasharray:none;stroke-opacity:1"
       d="M 65.744042,78.477075 C 64.547,78.765767 63.832284,79.275201 62.625747,79.516506"
       id="path26804" />
    <path
       style="fill:#e4cd87;fill-opacity:1;stroke:#a99300;stroke-width:2;stroke-linejoin:bevel;stroke-dasharray:none;stroke-opacity:1"
       d="m 175.66392,74.319349 c -1.32091,0.567568 -2.47822,1.473663 -3.37815,2.598578 -0.121,0.151244 -0.12291,0.38276 -0.25986,0.519716 -0.34648,0.346477 -0.25986,-0.433096 -0.25986,0.259858"
       id="path28948" />
    <path
       style="fill:#e4cd87;fill-opacity:1;stroke:#a99300;stroke-width:2;stroke-linejoin:bevel;stroke-dasharray:none;stroke-opacity:1"
       d="m 129.14936,135.12609 c 1.00695,-0.0459 5.24938,-0.10403 1.819,1.03943 -0.0222,0.007 1.45129,-0.0196 1.55915,0 0.539,0.098 1.02196,0.41228 1.55915,0.51972 0.33975,0.0679 0.72953,-0.15495 1.03943,0 0.15495,0.0775 0,0.34648 0,0.51971"
       id="path28952" />
    <path
       style="fill:#e4cd87;fill-opacity:1;stroke:#a99300;stroke-width:2;stroke-linejoin:bevel;stroke-dasharray:none;stroke-opacity:1"
       d="m 137.46481,65.224326 c -1.7586,1.274207 -5.55154,1.653675 -7.27602,3.378149 -0.0613,0.06125 0.0775,0.221123 0,0.259858 -0.60633,0.303168 -0.51971,-0.324821 -0.51971,0.259858"
       id="path28954" />
    <path
       style="fill:#e4cd87;fill-opacity:1;stroke:#a99300;stroke-width:2;stroke-linejoin:bevel;stroke-dasharray:none;stroke-opacity:1"
       d="m 117.1959,52.49129 c 3.46094,-1.064905 3.37815,0.138718 3.37815,-1.299289"
       id="path28956" />
    <path
       style="fill:#e4cd87;fill-opacity:1;stroke:#a99300;stroke-width:2;stroke-linejoin:bevel;stroke-dasharray:none;stroke-opacity:1"
       d="m 94.588263,61.846173 c -0.173239,0.692955 -0.346477,1.385909 -0.519716,2.078863"
       id="path28958" />
    <path
       style="fill:#e4cd87;fill-opacity:1;stroke:#a99300;stroke-width:2;stroke-linejoin:bevel;stroke-dasharray:none;stroke-opacity:1"
       d="m 90.430537,96.407268 c -4.063953,2.438373 -2.542614,1.661096 -4.417584,2.598578"
       id="path28960" />
    <path
       style="fill:#e4cd87;fill-opacity:1;stroke:#a99300;stroke-width:2;stroke-linejoin:bevel;stroke-dasharray:none;stroke-opacity:1"
       d="m 74.319349,128.36979 c 0.346477,2.07886 0.692954,4.15772 1.039431,6.23658"
       id="path28962" />
    <path
       style="fill:#e4cd87;fill-opacity:1;stroke:#a99300;stroke-width:2;stroke-linejoin:bevel;stroke-dasharray:none;stroke-opacity:1"
       d="m 99.78542,154.87529 c 4.70128,3.5951 2.6192,2.92856 5.45702,3.63801"
       id="path28964" />
    <path
       style="fill:#e4cd87;fill-opacity:1;stroke:#a99300;stroke-width:2;stroke-linejoin:bevel;stroke-dasharray:none;stroke-opacity:1"
       d="m 145.26055,173.06534 c -1.55915,0.86619 -3.1183,1.73239 -4.67744,2.59858"
       id="path28966" />
    <path
       style="fill:#e4cd87;fill-opacity:1;stroke:#a99300;stroke-width:2;stroke-linejoin:bevel;stroke-dasharray:none;stroke-opacity:1"
       d="m 176.44349,163.4506 2.59858,-4.9373"
       id="path28968" />
    <path
       style="fill:#e4cd87;fill-opacity:1;stroke:#a99300;stroke-width:2;stroke-linejoin:bevel;stroke-dasharray:none;stroke-opacity:1"
       d="m 156.17458,110.95931 c 6.8407,1.57862 6.7563,-0.75215 6.7563,1.819"
       id="path28970" />
    <path
       style="fill:#e4cd87;fill-opacity:1;stroke:#a99300;stroke-width:2;stroke-linejoin:bevel;stroke-dasharray:none;stroke-opacity:1"
       d="m 161.37174,27.285077 c 3.93212,-1.404332 2.92372,-0.22787 4.15772,-2.078864"
       id="path28972" />
    <path
       style="fill:#e4cd87;fill-opacity:1;stroke:#a99300;stroke-width:2;stroke-linejoin:bevel;stroke-dasharray:none;stroke-opacity:1"
       d="m 52.751148,24.946355 c 1.819005,-0.692954 3.63801,-1.385908 5.457015,-2.078863"
       id="path28974" />
    <path
       style="fill:#e4cd87;fill-opacity:1;stroke:#a99300;stroke-width:2;stroke-linejoin:bevel;stroke-dasharray:none;stroke-opacity:1"
       d="m 31.962518,58.987737 c -1.757254,2.63588 -1.33191,1.429763 -1.819005,3.378152"
       id="path28976" />
    <path
       style="fill:#e4cd87;fill-opacity:1;stroke:#a99300;stroke-width:2;stroke-linejoin:bevel;stroke-dasharray:none;stroke-opacity:1"
       d="m 28.06465,104.98258 c -5.094936,7.24017 -4.032968,4.30316 -5.197158,7.79573"
       id="path28978" />
    <path
       style="fill:#e4cd87;fill-opacity:1;stroke:#a99300;stroke-width:2;stroke-linejoin:bevel;stroke-dasharray:none;stroke-opacity:1"
       d="m 29.104082,141.8824 c 2.44998,3.43956 2.282674,3.37815 5.716873,3.37815"
       id="path28980" />
    <path
       style="fill:#e4cd87;fill-opacity:1;stroke:#a99300;stroke-width:2;stroke-linejoin:bevel;stroke-dasharray:none;stroke-opacity:1"
       d="m 56.389158,168.90761 c -4.101258,1.57741 -2.299057,0.75974 -5.457015,2.33872"
       id="path28982" />
    <path
       style="fill:#e4cd87;fill-opacity:1;stroke:#a99300;stroke-width:2;stroke-linejoin:bevel;stroke-dasharray:none;stroke-opacity:1"
       d="m 104.203,118.49519 c 1.54391,-1.15794 0.623,-0.6606 2.85844,-1.29929"
       id="path28984" />
    <path
       style="fill:#e4cd87;fill-opacity:1;stroke:#a99300;stroke-width:2;stroke-linejoin:bevel;stroke-dasharray:none;stroke-opacity:1"
       d="m 96.14741,23.906924 c 2.078863,-0.779574 4.15773,-1.559148 6.23659,-2.338721"
       id="path28986" />
  </g>
</svg>
