<svg xmlns="http://www.w3.org/2000/svg" xmlns:xlink="http://www.w3.org/1999/xlink" version="1.1" width="1080" height="1080" viewBox="0 0 1080 1080" xml:space="preserve">
<desc>Created with Fabric.js 3.5.0</desc>
<defs>
</defs>
<g transform="matrix(-20.4545 0 0 -20.4545 540.0011 540.0011)" id="106774">
<g style="" vector-effect="non-scaling-stroke">
		<g transform="matrix(1 0 0 1 0 0)">
<rect style="stroke: none; stroke-width: 1; stroke-dasharray: none; stroke-linecap: butt; stroke-dashoffset: 0; stroke-linejoin: miter; stroke-miterlimit: 4; is-custom-font: none; font-file-url: none; fill: rgb(255,255,255); fill-opacity: 0.01; fill-rule: nonzero; opacity: 1;" x="-24" y="-24" rx="0" ry="0" width="48" height="48"/>
</g>
		<g transform="matrix(1 0 0 1 -0.0001 0)">
<path style="stroke: rgb(0,0,0); stroke-width: 4; stroke-dasharray: none; stroke-linecap: butt; stroke-dashoffset: 0; stroke-linejoin: round; stroke-miterlimit: 4; is-custom-font: none; font-file-url: none; fill: rgb(255,168,47); fill-rule: nonzero; opacity: 1;" transform=" translate(-23.9999, -24)" d="M 24 44 C 32.2347 44 38.9998 37.4742 38.9998 29.0981 C 38.9998 27.0418 38.8953 24.8375 37.7555 21.4116 C 36.6157 17.9858 36.3861 17.5436 35.1809 15.4279 C 34.666 19.7454 31.911 21.5448 31.2111 22.0826 C 31.2111 21.5231 29.5445 15.3359 27.0176 11.6339 C 24.537 8 21.1634 5.61592 19.1853 4 C 19.1853 7.06977 18.3219 11.6339 17.0854 13.9594 C 15.8489 16.2849 15.6167 16.3696 14.0722 18.1002 C 12.5278 19.8308 11.8189 20.3653 10.5274 22.4651 C 9.23596 24.565 9 27.3618 9 29.4181 C 9 37.7942 15.7653 44 24 44 Z" stroke-linecap="round"/>
</g>
</g>
</g>
</svg>