<?xml version="1.0" encoding="iso-8859-1"?>
<!-- Generator: Adobe Illustrator 19.0.0, SVG Export Plug-In . SVG Version: 6.00 Build 0)  -->
<svg version="1.1" id="Layer_1" xmlns="http://www.w3.org/2000/svg" xmlns:xlink="http://www.w3.org/1999/xlink" x="0px" y="0px"
	 viewBox="0 0 512 512" style="enable-background:new 0 0 512 512;" xml:space="preserve">
<g>
	<g>
		<path d="M385.694,238.481h39.089c9.425,0,17.067-7.641,17.067-17.067s-7.641-17.067-17.067-17.067h-81.806
			c-2.685-1.555-5.303-2.934-7.852-4.129l45.992-18.322c6.492-2.586,10.751-8.868,10.751-15.855V44.977
			c0-9.425-7.641-17.067-17.067-17.067s-17.067,7.641-17.067,17.067v109.492l-51.99,20.71c9.059-11.041,14.504-25.154,14.504-40.516
			c0-29.367-19.895-54.159-46.911-61.648V17.067C273.339,7.641,265.698,0,256.272,0s-17.067,7.641-17.067,17.067v55.949
			c-27.015,7.489-46.911,32.281-46.911,61.648c0,15.362,5.447,29.475,14.504,40.516l-51.99-20.71V44.977
			c0-9.425-7.641-17.067-17.067-17.067s-17.067,7.641-17.067,17.067v121.064c0,6.988,4.26,13.27,10.751,15.855l46.072,18.352
			c-2.579,1.213-5.179,2.588-7.787,4.097h-81.95c-9.425,0-17.067,7.641-17.067,17.067s7.641,17.067,17.067,17.067h39.084
			c-2.709,2.645-5.31,5.263-7.776,7.805C52.785,314.652-0.053,409.828,71.369,451.058c29.016,16.751,60.365,9.513,85.959-13.599
			v57.474c0,9.425,7.641,17.067,17.067,17.067c9.425,0,17.067-7.641,17.067-17.067V391.597c0.525-0.969,1.041-1.942,1.555-2.917
			c10.853,24.145,35.115,41.008,63.257,41.008s52.404-16.864,63.258-41.009c0.513,0.974,1.03,1.947,1.553,2.915v103.34
			c0,9.425,7.641,17.067,17.067,17.067c9.425,0,17.067-7.641,17.067-17.067v-57.473c25.633,23.151,56.983,30.325,85.96,13.598
			h-0.001c18.949-10.939,30.707-29.183,33.113-51.372C480.292,344.263,425.502,277.329,385.694,238.481z M88.434,421.498
			c-64.992-37.517,78.936-190.021,111.425-193.034C213.202,259.999,153.076,458.811,88.434,421.498z M256.272,104.819
			c16.457,0,29.844,13.388,29.844,29.844c0,16.427-13.34,29.795-29.756,29.843c-0.03,0-0.059-0.001-0.089-0.001
			c-0.03,0-0.059,0.001-0.089,0.001c-16.415-0.048-29.756-13.416-29.756-29.843C226.428,118.207,239.817,104.819,256.272,104.819z
			 M256.272,395.554c-19.408,0-35.197-15.789-35.197-35.198v-40.401c9.183-29.069,23.089-82.361,8.291-108.824
			c6.558-7.77,16.313-12.47,26.833-12.492c0.025,0,0.049,0.002,0.073,0.002c0.025,0,0.049-0.002,0.073-0.002
			c10.422,0.022,20.225,4.644,26.838,12.483c-14.831,26.506-0.88,79.831,8.286,108.832v40.402h0.001
			C291.471,379.764,275.681,395.554,256.272,395.554z M424.112,421.498c-65.339,37.711-124.343-163.065-111.413-193.062
			C344.914,231.606,489.348,383.835,424.112,421.498z"/>
	</g>
</g>
<g>
</g>
<g>
</g>
<g>
</g>
<g>
</g>
<g>
</g>
<g>
</g>
<g>
</g>
<g>
</g>
<g>
</g>
<g>
</g>
<g>
</g>
<g>
</g>
<g>
</g>
<g>
</g>
<g>
</g>
</svg>
