<?xml version="1.0" encoding="UTF-8" standalone="no"?>
<!-- Created with Inkscape (http://www.inkscape.org/) -->

<svg
   width="200mm"
   height="200mm"
   viewBox="0 0 200 200"
   version="1.1"
   id="svg5"
   inkscape:version="1.2.2 (732a01da63, 2022-12-09)"
   sodipodi:docname="grass3.svg"
   xmlns:inkscape="http://www.inkscape.org/namespaces/inkscape"
   xmlns:sodipodi="http://sodipodi.sourceforge.net/DTD/sodipodi-0.dtd"
   xmlns="http://www.w3.org/2000/svg"
   xmlns:svg="http://www.w3.org/2000/svg">
  <sodipodi:namedview
     id="namedview7"
     pagecolor="#ffffff"
     bordercolor="#000000"
     borderopacity="0.25"
     inkscape:showpageshadow="2"
     inkscape:pageopacity="0.0"
     inkscape:pagecheckerboard="0"
     inkscape:deskcolor="#d1d1d1"
     inkscape:document-units="mm"
     showgrid="false"
     inkscape:zoom="1.0181848"
     inkscape:cx="419.37377"
     inkscape:cy="384.99887"
     inkscape:window-width="1920"
     inkscape:window-height="991"
     inkscape:window-x="-9"
     inkscape:window-y="-9"
     inkscape:window-maximized="1"
     inkscape:current-layer="layer4" />
  <defs
     id="defs2" />
  <g
     inkscape:groupmode="layer"
     id="layer3"
     inkscape:label="Background">
    <rect
       style="fill:#639400;fill-opacity:1;stroke:#ff522b;stroke-width:0;stroke-linecap:butt;stroke-linejoin:bevel;stroke-dasharray:none;stroke-opacity:1;paint-order:normal"
       id="rect11023"
       width="200"
       height="200"
       x="5e-07"
       y="5e-07" />
  </g>
  <g
     inkscape:groupmode="layer"
     id="layer4"
     inkscape:label="Grass">
    <path
       style="fill:none;fill-opacity:1;stroke:#1d3800;stroke-width:2;stroke-linejoin:bevel;stroke-dasharray:none;stroke-opacity:1"
       d="m 108.10087,90.170679 c 0.4331,-1.385909 0.85676,-2.774802 1.29929,-4.157726 0.25045,-0.782646 0.63677,-1.529482 0.77957,-2.338721 0.12043,-0.682408 -0.098,-1.392872 0,-2.078863 0.0898,-0.628954 1.55069,-4.141737 1.55915,-4.157726 0.34864,-0.658535 0.94864,-1.161539 1.29929,-1.819005 0.34827,-0.653008 0.39881,-1.444252 0.77958,-2.078863 0.39656,-0.660948 1.29928,-0.531656 1.29928,-1.559147"
       id="path20294" />
    <path
       style="fill:none;fill-opacity:1;stroke:#1d3800;stroke-width:2;stroke-linejoin:bevel;stroke-dasharray:none;stroke-opacity:1"
       d="m 65.484184,117.45576 c -1.989648,-4.28312 -3.431485,-9.63226 -7.016163,-12.9929 -0.683527,-0.6408 -1.589177,-0.99699 -2.338721,-1.55915 -1.150032,-0.86252 -2.26465,-2.56894 -3.63801,-3.11829 -1.99577,-0.798306 -3.844015,-0.206002 -5.457015,-1.819005"
       id="path20296" />
    <path
       style="fill:none;fill-opacity:1;stroke:#1d3800;stroke-width:2;stroke-linejoin:bevel;stroke-dasharray:none;stroke-opacity:1"
       d="m 129.92893,153.576 c 1.78626,-1.56822 7.61466,-5.31751 10.13446,-4.41758 0.91201,0.32571 1.73239,0.86619 2.59858,1.29929 1.21267,0.43309 2.4164,0.89208 3.63801,1.29928 1.37749,0.45917 2.74907,0.94713 4.15773,1.29929 1.43406,0.35852 0.84503,-0.45425 1.819,0.51972"
       id="path20298" />
    <path
       style="fill:none;fill-opacity:1;stroke:#1d3800;stroke-width:2;stroke-linejoin:bevel;stroke-dasharray:none;stroke-opacity:1"
       d="m 77.177785,150.71756 c 0.259858,-0.51971 0.507704,-1.04561 0.779574,-1.55914 0.847048,-1.59998 1.385734,-2.51161 2.078863,-3.89787 0.231484,-0.46296 -0.08785,-1.29189 0,-1.81901 0.121311,-0.72786 1.738188,-6.8672 2.078863,-7.27602 0.247991,-0.29759 0.814276,-0.20449 1.039431,-0.51971 0.256718,-0.35941 8e-5,-0.94209 0.259858,-1.29929 0.459409,-0.63169 2.598579,-1.68912 2.598579,-2.85844"
       id="path20300" />
    <path
       style="fill:none;fill-opacity:1;stroke:#1d3800;stroke-width:2;stroke-linejoin:bevel;stroke-dasharray:none;stroke-opacity:1"
       d="m 159.81259,78.477075 c 0.92907,-2.468703 2.49259,-3.282249 4.15772,-5.197158 1.17174,-1.347499 2.34024,-2.704639 3.37816,-4.157726 2.39776,-3.356872 1.0903,-2.285103 2.85843,-4.937297 0.30766,-0.461483 0.75408,-0.823695 1.03943,-1.299289 0.24,-0.399987 0.2725,-0.903735 0.51972,-1.299289 0.19477,-0.311637 0.53758,-0.503008 0.77957,-0.779574 1.03047,-1.177682 1.29929,-1.880283 1.29929,-3.378152"
       id="path20302" />
    <path
       style="fill:none;fill-opacity:1;stroke:#1d3800;stroke-width:2;stroke-linejoin:bevel;stroke-dasharray:none;stroke-opacity:1"
       d="m 157.47387,20.528771 c 4.74651,-2.513001 9.50995,-5.148356 14.03232,-8.055593 0.46655,-0.299923 0.8237,-0.754075 1.29929,-1.039432 0.39999,-0.239991 0.92612,-0.23984 1.29929,-0.519716 0.44371,-0.33278 0.64725,-0.907103 1.03943,-1.299289"
       id="path20304" />
    <path
       style="fill:none;fill-opacity:1;stroke:#1d3800;stroke-width:2;stroke-linejoin:bevel;stroke-dasharray:none;stroke-opacity:1"
       d="M 92.769258,20.528771 C 86.363047,19.291267 80.753534,14.552041 74.059491,14.552041"
       id="path20306" />
    <path
       style="fill:none;fill-opacity:1;stroke:#1d3800;stroke-width:2;stroke-linejoin:bevel;stroke-dasharray:none;stroke-opacity:1"
       d="m 84.453806,152.27671 c 0.693944,-2.90491 6.756304,-5.8737 6.756304,-8.57531"
       id="path20308" />
    <path
       style="fill:none;fill-opacity:1;stroke:#1d3800;stroke-width:2;stroke-linejoin:bevel;stroke-dasharray:none;stroke-opacity:1"
       d="m 70.421481,112.77831 c 0,-2.16548 0,-4.33096 0,-6.49644"
       id="path20310" />
    <path
       style="fill:none;fill-opacity:1;stroke:#1d3800;stroke-width:2;stroke-linejoin:bevel;stroke-dasharray:none;stroke-opacity:1"
       d="m 167.60832,78.477075 c 2.13883,-0.295246 4.00563,-1.517428 5.97674,-2.338721 0.43057,-0.179406 0.90373,-0.272492 1.29929,-0.519716 0.64278,-0.401743 0.9469,-1.299289 1.819,-1.299289"
       id="path20312" />
    <path
       style="fill:none;fill-opacity:1;stroke:#1d3800;stroke-width:2;stroke-linejoin:bevel;stroke-dasharray:none;stroke-opacity:1"
       d="m 150.71756,17.410477 c -4.40647,-3.304858 -1.71341,-1.527058 -6.49644,-4.157726 -1.12369,-0.618025 -1.86534,-1.299289 -3.1183,-1.299289"
       id="path20314" />
    <path
       style="fill:none;fill-opacity:1;stroke:#1d3800;stroke-width:2;stroke-linejoin:bevel;stroke-dasharray:none;stroke-opacity:1"
       d="m 126.03107,145.00069 c 1.89777,0.16311 3.35922,-1.72853 4.67744,-2.85844"
       id="path20316" />
    <path
       style="fill:none;fill-opacity:1;stroke:#1d3800;stroke-width:2;stroke-linejoin:bevel;stroke-dasharray:none;stroke-opacity:1"
       d="m 38.458965,187.35752 c -3.024656,0 -1.698424,0.11174 -5.976731,-0.77957 -0.699267,-0.14568 -1.439992,-0.20028 -2.078863,-0.51972 -0.154951,-0.0775 -0.144145,-0.42362 0,-0.51971 0.216215,-0.14415 0.519716,0 0.779574,0"
       id="path20318" />
    <path
       style="fill:none;fill-opacity:1;stroke:#1d3800;stroke-width:2;stroke-linejoin:bevel;stroke-dasharray:none;stroke-opacity:1"
       d="M 29.883655,51.451859 C 21.776417,48.148909 25.281183,49.336094 19.48934,47.553991"
       id="path20320" />
  </g>
</svg>
