<?xml version="1.0" encoding="UTF-8" standalone="no"?>
<!-- Created with Inkscape (http://www.inkscape.org/) -->

<svg
   width="200mm"
   height="200mm"
   viewBox="0 0 200 200"
   version="1.1"
   id="svg5"
   inkscape:version="1.2.2 (732a01da63, 2022-12-09)"
   sodipodi:docname="grass2.svg"
   xmlns:inkscape="http://www.inkscape.org/namespaces/inkscape"
   xmlns:sodipodi="http://sodipodi.sourceforge.net/DTD/sodipodi-0.dtd"
   xmlns="http://www.w3.org/2000/svg"
   xmlns:svg="http://www.w3.org/2000/svg">
  <sodipodi:namedview
     id="namedview7"
     pagecolor="#ffffff"
     bordercolor="#000000"
     borderopacity="0.25"
     inkscape:showpageshadow="2"
     inkscape:pageopacity="0.0"
     inkscape:pagecheckerboard="0"
     inkscape:deskcolor="#d1d1d1"
     inkscape:document-units="mm"
     showgrid="false"
     inkscape:zoom="1.0181848"
     inkscape:cx="419.37377"
     inkscape:cy="384.99887"
     inkscape:window-width="1920"
     inkscape:window-height="991"
     inkscape:window-x="-9"
     inkscape:window-y="-9"
     inkscape:window-maximized="1"
     inkscape:current-layer="layer4" />
  <defs
     id="defs2" />
  <g
     inkscape:groupmode="layer"
     id="layer3"
     inkscape:label="Background">
    <rect
       style="fill:#639400;fill-opacity:1;stroke:#ff522b;stroke-width:0;stroke-linecap:butt;stroke-linejoin:bevel;stroke-dasharray:none;stroke-opacity:1;paint-order:normal"
       id="rect11023"
       width="200"
       height="200"
       x="5e-07"
       y="5e-07" />
  </g>
  <g
     inkscape:groupmode="layer"
     id="layer4"
     inkscape:label="Grass">
    <path
       style="fill:none;fill-opacity:1;stroke:#1d3800;stroke-width:2;stroke-linejoin:bevel;stroke-dasharray:none;stroke-opacity:1"
       d="m 36.120244,138.50424 c 0.519716,-0.17324 1.050502,-0.31625 1.559147,-0.51971 0.359667,-0.14387 0.668396,-0.40841 1.039432,-0.51972 2.098138,-0.62944 4.351605,-0.0811 6.496447,-0.25986 0.432853,-0.0361 5.113964,-0.60496 5.976731,-0.25985 0.289972,0.11598 0.476586,0.44396 0.779573,0.51971 1.609016,0.40226 3.638011,-0.0825 3.638011,0.51972"
       id="path20247" />
    <path
       style="fill:none;fill-opacity:1;stroke:#1d3800;stroke-width:2;stroke-linejoin:bevel;stroke-dasharray:none;stroke-opacity:1"
       d="m 37.419534,143.18168 c 2.080648,-1.86822 1.990748,1.03944 3.118294,1.03944"
       id="path20249" />
    <path
       style="fill:none;fill-opacity:1;stroke:#1d3800;stroke-width:2;stroke-linejoin:bevel;stroke-dasharray:none;stroke-opacity:1"
       d="m 122.65291,164.74989 c 0.25986,-0.95281 0.59478,-1.88827 0.77958,-2.85844 0.41248,-2.16553 0.37381,-4.87756 1.819,-6.7563 0.48691,-0.63298 1.27734,-0.97234 1.81901,-1.55915 0.5054,-0.54752 0.84182,-1.23084 1.29929,-1.81901 0.6115,-0.78622 0.70282,-0.44296 1.55914,-1.29928 0.13696,-0.13696 0.0866,-0.4331 0.25986,-0.51972 0.74888,-0.37444 2.07886,0.32496 2.07886,-0.77957"
       id="path20251" />
    <path
       style="fill:none;fill-opacity:1;stroke:#1d3800;stroke-width:2;stroke-linejoin:bevel;stroke-dasharray:none;stroke-opacity:1"
       d="m 138.24439,165.78932 c 0.85889,-0.76117 2.20099,-0.94762 3.11829,-1.55915 0.0721,-0.048 -0.0613,-0.19861 0,-0.25986 0.1225,-0.1225 0.39722,0.1225 0.51972,0 0.67466,-0.67466 -0.23555,-0.51971 0.77957,-0.51971"
       id="path20253" />
    <path
       style="fill:none;fill-opacity:1;stroke:#1d3800;stroke-width:2;stroke-linejoin:bevel;stroke-dasharray:none;stroke-opacity:1"
       d="m 104.72272,116.15647 c -2.3874,-3.3938 -4.62303,-6.87853 -7.535879,-9.8746 -2.710058,-2.78749 -6.288468,-5.10048 -8.315452,-8.575313 -0.714999,-1.225714 -0.803801,-2.104046 -1.299289,-3.378152 -1.097637,-2.822496 -1.299289,-2.23216 -1.299289,-4.157726"
       id="path20255" />
    <path
       style="fill:none;fill-opacity:1;stroke:#1d3800;stroke-width:2;stroke-linejoin:bevel;stroke-dasharray:none;stroke-opacity:1"
       d="m 110.69945,113.81775 -1.55915,-5.71688"
       id="path20257" />
    <path
       style="fill:none;fill-opacity:1;stroke:#1d3800;stroke-width:2;stroke-linejoin:bevel;stroke-dasharray:none;stroke-opacity:1"
       d="m 128.36979,75.878496 c 1.88505,-5.655154 0.18435,0.26869 0.77957,-3.897868 0.10101,-0.707102 0.4187,-1.371759 0.51972,-2.078863 0.0735,-0.51449 -0.0855,-1.046501 0,-1.559147 0.0901,-0.540375 0.41227,-1.021956 0.51971,-1.559145 0.15383,-0.769141 0.0578,-1.580835 0.25986,-2.338721 0.14972,-0.56144 0.61994,-1.000445 0.77957,-1.559147 0.33653,-1.177851 0.40881,-2.418061 0.51972,-3.63801 0.0392,-0.431319 -0.11898,-0.882859 0,-1.29929 0.0673,-0.235571 0.38381,-0.315867 0.51971,-0.519715 0.21488,-0.322316 0.3837,-0.676725 0.51972,-1.039432 0.1254,-0.334401 0.0761,-0.733187 0.25986,-1.039431 0.0996,-0.166087 0.4035,-0.10491 0.51971,-0.259858 0.27988,-0.373169 0.42824,-0.841888 0.51972,-1.29929 0.0914,-0.457215 -0.26965,-1.039431 0.25986,-1.039431"
       id="path20259" />
    <path
       style="fill:none;fill-opacity:1;stroke:#1d3800;stroke-width:2;stroke-linejoin:bevel;stroke-dasharray:none;stroke-opacity:1"
       d="m 134.08666,76.138354 c 1.15609,0.06946 1.91304,-1.244015 2.85844,-1.559147 0.61752,-0.205841 0.47196,0.307612 1.03943,-0.259858 0.13695,-0.136957 0.0987,-0.412277 0.25986,-0.519716 1.92664,-1.284428 -0.51102,1.030727 0.77957,-0.259858"
       id="path20261" />
    <path
       style="fill:none;fill-opacity:1;stroke:#1d3800;stroke-width:2;stroke-linejoin:bevel;stroke-dasharray:none;stroke-opacity:1"
       d="m 68.342618,45.734985 c -0.03903,-4.602265 -1.353955,-6.698228 -5.716871,-8.835167 -6.013844,-2.945556 -5.990053,-2.861101 -9.874599,-3.63801"
       id="path20263" />
    <path
       style="fill:none;fill-opacity:1;stroke:#1d3800;stroke-width:2;stroke-linejoin:bevel;stroke-dasharray:none;stroke-opacity:1"
       d="m 163.97031,102.12414 c 0,-4.977192 -0.35386,-0.81269 1.03944,-5.457014 0.25382,-0.846093 0.32809,-1.736268 0.51971,-2.598579 0.11844,-0.532977 0.57845,-3.417305 1.29929,-3.897868 0.52338,-0.348922 0.54898,0.230592 1.03943,-0.259858"
       id="path20265" />
    <path
       style="fill:none;fill-opacity:1;stroke:#1d3800;stroke-width:2;stroke-linejoin:bevel;stroke-dasharray:none;stroke-opacity:1"
       d="m 67.563047,186.57795 c -2.974899,-1.5756 -6.161927,-2.83355 -9.354884,-3.89787 -1.451583,-0.48386 -0.92075,0.0192 -1.819005,-0.51971 -0.370641,-0.22239 -0.853792,-0.63108 -1.299289,-0.77958 -0.389787,-0.12993 -0.259858,0.25986 -0.779574,0 -0.07748,-0.0387 0,-0.17324 0,-0.25986"
       id="path20267" />
    <path
       style="fill:none;fill-opacity:1;stroke:#1d3800;stroke-width:2;stroke-linejoin:bevel;stroke-dasharray:none;stroke-opacity:1"
       d="m 41.057544,87.312242 c -1.092938,-1.823445 -1.660406,-3.95506 -2.858437,-5.716873 -1.950543,-2.868443 -2.630278,-2.527893 -4.677442,-4.417584 -0.720097,-0.664705 -1.344033,-1.430483 -2.078863,-2.078863 -2.248463,-1.983938 -2.647434,-1.582962 -4.417583,-4.157726 -0.373724,-0.543597 -0.519716,-1.21267 -0.779574,-1.819005 -0.259858,-0.606335 -0.585574,-1.188503 -0.779574,-1.819002 -0.154949,-0.503587 -0.0076,-1.0966 -0.259858,-1.559147 -0.293292,-0.537705 -0.916669,-0.821016 -1.299289,-1.29929 -0.595639,-0.744551 -0.935015,-1.974448 -1.559148,-2.598579"
       id="path20269" />
    <path
       style="fill:none;fill-opacity:1;stroke:#1d3800;stroke-width:2;stroke-linejoin:bevel;stroke-dasharray:none;stroke-opacity:1"
       d="m 163.71046,30.403371 c 1.18967,-1.544418 3.62806,-7.400978 4.9373,-8.055595"
       id="path20271" />
  </g>
</svg>
