<svg xmlns="http://www.w3.org/2000/svg" xmlns:xlink="http://www.w3.org/1999/xlink" version="1.1" width="1080" height="1080" viewBox="0 0 1080 1080" xml:space="preserve">
<desc>Created with Fabric.js 3.5.0</desc>
<defs>
</defs>
<rect x="0" y="0" width="100%" height="100%" fill="#ffffff"/>
<g transform="matrix(4.4052 0 0 4.4052 539.9987 539.9987)" id="206178">
<path style="stroke: none; stroke-width: 1; stroke-dasharray: none; stroke-linecap: butt; stroke-dashoffset: 0; stroke-linejoin: miter; stroke-miterlimit: 4; is-custom-font: none; font-file-url: none; fill: rgb(0,0,0); fill-rule: nonzero; opacity: 1;" vector-effect="non-scaling-stroke" transform=" translate(-111.4375, -111.4375)" d="m 220.679 136.597 l -39.27 -39.27 c -2.929 -2.929 -7.678 -2.929 -10.606 -0.001 l -10.846 10.845 c -0.653 -9.445 -1.968 -18.553 -3.884 -27.087 c -0.056 -0.321 -0.124 -0.637 -0.219 -0.942 c -0.527 -2.283 -1.09 -4.532 -1.704 -6.725 l 19.017 -19.013 l 33.966 33.324 c 1.46 1.433 3.358 2.146 5.253 2.146 c 1.943 0 3.885 -0.751 5.354 -2.248 c 2.901 -2.956 2.855 -7.705 -0.101 -10.606 l -39.269 -38.526 c -2.938 -2.881 -7.645 -2.859 -10.556 0.05 l -19.165 19.161 c -0.346 -0.805 -0.689 -1.613 -1.05 -2.396 c -5.956 -12.952 -13.49 -22.106 -21.944 -26.91 l 10.548 -10.548 h 68.211 c 4.143 0 7.5 -3.358 7.5 -7.5 s -3.357 -7.5 -7.5 -7.5 h -71.317 c -1.989 0 -3.896 0.79 -5.304 2.197 l -16.355 16.354 l -16.354 -16.352 c -1.407 -1.407 -3.315 -2.197 -5.304 -2.197 h -71.318 c -4.143 0 -7.5 3.358 -7.5 7.5 s 3.357 7.5 7.5 7.5 h 68.212 l 10.547 10.548 c -8.454 4.804 -15.989 13.958 -21.945 26.91 c -0.36 0.783 -0.703 1.591 -1.05 2.395 l -19.162 -19.16 c -2.909 -2.909 -7.618 -2.93 -10.555 -0.05 l -39.27 38.526 c -2.957 2.901 -3.003 7.649 -0.102 10.606 c 1.469 1.497 3.41 2.248 5.353 2.248 c 1.896 0 3.793 -0.714 5.252 -2.146 l 33.969 -33.325 l 19.014 19.012 c -0.671 2.397 -1.285 4.857 -1.853 7.363 c -0.008 0.037 -0.018 0.073 -0.025 0.11 c -1.939 8.59 -3.271 17.764 -3.929 27.281 l -10.845 -10.844 c -2.928 -2.929 -7.677 -2.928 -10.606 0.001 l -39.271 39.27 c -2.929 2.929 -2.929 7.677 0 10.606 c 1.465 1.465 3.384 2.197 5.304 2.197 c 1.919 0 3.839 -0.732 5.304 -2.197 l 33.967 -33.967 l 15.786 15.784 c 0.424 12.934 2.055 25.382 4.783 36.737 h -23.31 c -4.143 0 -7.5 3.358 -7.5 7.5 v 39.265 c 0 4.142 3.357 7.5 7.5 7.5 s 7.5 -3.358 7.5 -7.5 v -31.765 h 20.296 c 1.068 2.935 2.212 5.77 3.45 8.462 c 9.134 19.863 21.977 30.803 36.162 30.803 c 0.002 0 0.003 0 0.005 0 c 0 0 0.001 0 0.002 0 c 0.002 0 0.004 0 0.007 0 c 14.18 -0.006 27.017 -10.945 36.147 -30.802 c 1.237 -2.692 2.382 -5.527 3.45 -8.462 h 20.297 v 31.765 c 0 4.142 3.357 7.5 7.5 7.5 c 4.143 0 7.5 -3.358 7.5 -7.5 v -39.265 c 0 -4.142 -3.357 -7.5 -7.5 -7.5 h -23.313 c 2.729 -11.354 4.36 -23.802 4.784 -36.735 l 15.787 -15.786 l 33.967 33.966 c 1.465 1.464 3.385 2.197 5.304 2.197 s 3.839 -0.732 5.304 -2.197 c 2.929 -2.929 2.929 -7.678 2.84217e-14 -10.607 z m -109.241 -97.086 c 9.794 7.10543e-15 20.262 12.62 26.957 33.49 c 0.094 0.398 0.216 0.791 0.375 1.173 c 0.073 0.234 0.146 0.466 0.219 0.702 h -55.102 c 0.07 -0.232 0.143 -0.461 0.214 -0.691 c 0.165 -0.392 0.291 -0.796 0.386 -1.206 c 6.695 -20.857 17.16 -33.468 26.951 -33.468 z m -26.946 132.058 c -0.1 -0.43 -0.229 -0.849 -0.399 -1.247 c -4.078 -13.197 -6.659 -29.56 -6.659 -48.058 c 0 -11.747 1.048 -22.624 2.852 -32.388 h 23.659 v 112.79 c -7.355 -4.553 -14.453 -15.527 -19.453 -31.097 z m 34.453 31.089 v -112.782 h 23.646 c 1.803 9.763 2.851 20.641 2.851 32.388 c 0 18.502 -2.583 34.87 -6.662 48.068 c -0.164 0.387 -0.29 0.794 -0.388 1.21 c -4.999 15.575 -12.094 26.555 -19.447 31.116 z" stroke-linecap="round"/>
</g>
</svg>