<?xml version="1.0" encoding="UTF-8" standalone="no"?>
<svg
   version="1.1"
   width="1080"
   height="1080"
   viewBox="0 0 1080 1080"
   xml:space="preserve"
   id="svg154"
   sodipodi:docname="stink.svg"
   inkscape:version="1.2.2 (732a01da63, 2022-12-09)"
   xmlns:inkscape="http://www.inkscape.org/namespaces/inkscape"
   xmlns:sodipodi="http://sodipodi.sourceforge.net/DTD/sodipodi-0.dtd"
   xmlns:xlink="http://www.w3.org/1999/xlink"
   xmlns="http://www.w3.org/2000/svg"
   xmlns:svg="http://www.w3.org/2000/svg"><sodipodi:namedview
   id="namedview156"
   pagecolor="#ffffff"
   bordercolor="#000000"
   borderopacity="0.25"
   inkscape:showpageshadow="2"
   inkscape:pageopacity="0.0"
   inkscape:pagecheckerboard="0"
   inkscape:deskcolor="#d1d1d1"
   showgrid="false"
   inkscape:zoom="0.7462963"
   inkscape:cx="499.13151"
   inkscape:cy="541.33995"
   inkscape:window-width="1920"
   inkscape:window-height="1009"
   inkscape:window-x="-8"
   inkscape:window-y="-8"
   inkscape:window-maximized="1"
   inkscape:current-layer="svg154" />
<desc
   id="desc145">Created with Fabric.js 3.5.0</desc>
<defs
   id="defs147"><linearGradient
   inkscape:collect="always"
   id="linearGradient2928"><stop
     style="stop-color:#aa8800;stop-opacity:0;"
     offset="1.2e-07"
     id="stop2926" /><stop
     style="stop-color:#aa8800;stop-opacity:1;"
     offset="1"
     id="stop2924" /></linearGradient>
<radialGradient
   inkscape:collect="always"
   xlink:href="#linearGradient2928"
   id="radialGradient2930"
   cx="4.4408921e-15"
   cy="4.4408921e-15"
   fx="4.4408921e-15"
   fy="4.4408921e-15"
   r="16"
   gradientTransform="scale(1,0.699875)"
   gradientUnits="userSpaceOnUse" /></defs>

<g
   transform="matrix(30.6818 0 0 30.6818 539.9997 539.9998)"
   id="829593"
   style="fill-opacity:1;fill-rule:nonzero;fill:url(#radialGradient2930)">
<path
   style="stroke:none;stroke-width:1;stroke-dasharray:none;stroke-linecap:butt;stroke-dashoffset:0;stroke-linejoin:miter;stroke-miterlimit:4;is-custom-font:none;font-file-url:none;fill-rule:nonzero;opacity:1;fill-opacity:0.38135594;fill:#aa8800"
   vector-effect="non-scaling-stroke"
   transform=" translate(-16.001, -16)"
   d="M 13.339 7.219 c 1 -1.057 2.464 -1.74 4.063 -1.74 c 2.078 0 3.938 1.203 4.917 2.943 c 0.844 -0.401 1.802 -0.604 2.802 -0.604 c 3.802 0 6.88 3.12 6.88 6.964 c 0 3.839 -3.083 6.958 -6.901 6.958 c -0.458 0 -0.917 -0.057 -1.359 -0.141 c -0.859 1.563 -2.5 2.604 -4.401 2.604 c -0.802 0 -1.542 -0.203 -2.198 -0.5 c -0.88 2.057 -2.922 3.495 -5.302 3.495 c -2.479 0 -4.599 -1.557 -5.401 -3.755 c -0.359 0.078 -0.719 0.099 -1.099 0.099 c -2.938 0 -5.339 -2.401 -5.339 -5.401 c 0 -2 1.078 -3.74 2.677 -4.677 c -0.339 -0.76 -0.521 -1.604 -0.521 -2.464 c 0 -3.438 2.802 -6.198 6.203 -6.198 c 2.042 0 3.797 0.938 4.958 2.401 z"
   stroke-linecap="round"
   id="path151" />
</g>
</svg>
