<?xml version="1.0" encoding="UTF-8" standalone="no"?>
<!-- Created with Inkscape (http://www.inkscape.org/) -->

<svg
   width="200mm"
   height="200mm"
   viewBox="0 0 200 200"
   version="1.1"
   id="svg5"
   inkscape:version="1.2.2 (732a01da63, 2022-12-09)"
   sodipodi:docname="lavaCrack2.svg"
   xmlns:inkscape="http://www.inkscape.org/namespaces/inkscape"
   xmlns:sodipodi="http://sodipodi.sourceforge.net/DTD/sodipodi-0.dtd"
   xmlns="http://www.w3.org/2000/svg"
   xmlns:svg="http://www.w3.org/2000/svg">
  <sodipodi:namedview
     id="namedview7"
     pagecolor="#ffffff"
     bordercolor="#000000"
     borderopacity="0.25"
     inkscape:showpageshadow="2"
     inkscape:pageopacity="0.0"
     inkscape:pagecheckerboard="0"
     inkscape:deskcolor="#d1d1d1"
     inkscape:document-units="mm"
     showgrid="false"
     inkscape:zoom="1.0181848"
     inkscape:cx="432.63267"
     inkscape:cy="384.99888"
     inkscape:window-width="1920"
     inkscape:window-height="991"
     inkscape:window-x="-9"
     inkscape:window-y="-9"
     inkscape:window-maximized="1"
     inkscape:current-layer="layer3" />
  <defs
     id="defs2" />
  <g
     inkscape:groupmode="layer"
     id="layer3"
     inkscape:label="Element">
    <path
       style="fill:#ff522b;fill-opacity:1;stroke:#ff522b;stroke-width:0;stroke-linecap:butt;stroke-linejoin:bevel;stroke-dasharray:none;stroke-opacity:1;paint-order:normal"
       d="m 24.946355,22.347777 10.134458,22.867493 15.071756,12.992893 12.21332,16.890762 10.394315,24.42664 17.930193,18.969625 3.897868,29.62379 -12.733035,18.44991 -16.371046,14.29219 18.969624,-12.9929 13.252752,-20.78863 15.07176,20.26892 11.6936,16.89076 L 112.2586,161.11188 99.525565,145.00069 97.70656,118.23533 99.525565,110.4396 111.47903,104.46286 96.147413,109.14031 84.973524,102.12414 71.460915,81.85523 60.806742,64.184894 47.034275,49.632853 36.380102,41.837117 Z"
       id="path10945" />
    <path
       style="fill:#ff522b;fill-opacity:1;stroke:#ff522b;stroke-width:0;stroke-linecap:butt;stroke-linejoin:bevel;stroke-dasharray:none;stroke-opacity:1;paint-order:normal"
       d="m 152.79643,25.466071 v 13.51261 l -12.47318,11.693604 12.99289,-9.095026 5.45702,1.559148 -4.15773,-3.897868 z"
       id="path10947" />
  </g>
</svg>
