<?xml version="1.0" encoding="UTF-8" standalone="no"?>
<!-- Created with Inkscape (http://www.inkscape.org/) -->

<svg
   width="200mm"
   height="200mm"
   viewBox="0 0 200 200"
   version="1.1"
   id="svg5"
   inkscape:version="1.2.2 (732a01da63, 2022-12-09)"
   sodipodi:docname="ocean3.svg"
   xmlns:inkscape="http://www.inkscape.org/namespaces/inkscape"
   xmlns:sodipodi="http://sodipodi.sourceforge.net/DTD/sodipodi-0.dtd"
   xmlns="http://www.w3.org/2000/svg"
   xmlns:svg="http://www.w3.org/2000/svg">
  <sodipodi:namedview
     id="namedview7"
     pagecolor="#ffffff"
     bordercolor="#000000"
     borderopacity="0.25"
     inkscape:showpageshadow="2"
     inkscape:pageopacity="0.0"
     inkscape:pagecheckerboard="0"
     inkscape:deskcolor="#d1d1d1"
     inkscape:document-units="mm"
     showgrid="false"
     inkscape:zoom="1.0181848"
     inkscape:cx="433.12373"
     inkscape:cy="385.48994"
     inkscape:window-width="1920"
     inkscape:window-height="991"
     inkscape:window-x="-9"
     inkscape:window-y="-9"
     inkscape:window-maximized="1"
     inkscape:current-layer="layer4" />
  <defs
     id="defs2" />
  <g
     inkscape:groupmode="layer"
     id="layer3"
     inkscape:label="Background">
    <rect
       style="fill:#2a1f9b;fill-opacity:1;stroke:#ff522b;stroke-width:0;stroke-linecap:butt;stroke-linejoin:bevel;stroke-dasharray:none;stroke-opacity:1;paint-order:normal"
       id="rect11023"
       width="200"
       height="200"
       x="5e-07"
       y="5e-07" />
  </g>
  <g
     inkscape:groupmode="layer"
     id="layer4"
     inkscape:label="Waves">
    <path
       style="fill:#2a1f9b;fill-opacity:1;stroke:#110066;stroke-width:0.8;stroke-linecap:butt;stroke-linejoin:bevel;stroke-dasharray:none;stroke-opacity:1;paint-order:normal"
       d="m 83.414377,42.616691 c -1.025324,1.678816 -2.015697,0.618061 -3.378153,1.299289 -0.666461,0.33323 -1.180065,0.915924 -1.819005,1.29929 -0.166087,0.09965 -0.412279,0.0987 -0.519715,0.259858 -0.504693,0.757039 0.49953,0.852736 0.779573,1.039431 0.07207,0.04805 -0.07747,0.22112 0,0.259858 0.154948,0.07747 0.442241,-0.154951 0.519716,0 0.282004,0.564007 -2.250826,1.02924 -2.858437,1.299289 -0.449556,0.199803 -4.078938,2.078863 -4.157726,2.078863"
       id="path14254" />
    <path
       style="fill:#2a1f9b;fill-opacity:1;stroke:#110066;stroke-width:0.8;stroke-linecap:butt;stroke-linejoin:bevel;stroke-dasharray:none;stroke-opacity:1;paint-order:normal"
       d="m 69.122194,90.690397 c 0.779573,-0.433096 1.560618,-0.863552 2.338721,-1.299289 1.387387,-0.776938 2.827652,-1.467295 4.157726,-2.338721 2.389671,0.06208 2.704639,-2.340234 4.157726,-3.378152 0.824547,-0.588965 2.413095,-0.795446 3.378152,-0.519716 0.235569,0.06731 0.28729,0.44224 0.519716,0.519716 0.468373,0.156125 1.299289,-0.332042 1.299289,0.259858"
       id="path14256" />
    <path
       style="fill:#2a1f9b;fill-opacity:1;stroke:#110066;stroke-width:0.8;stroke-linecap:butt;stroke-linejoin:bevel;stroke-dasharray:none;stroke-opacity:1;paint-order:normal"
       d="m 140.58311,103.68329 c 0.11033,2.07037 -0.15897,4.16996 0,6.23659 0.0909,1.18191 0.69024,1.81086 1.03943,2.85844 0.21444,0.64333 0.27023,1.41358 0.51972,2.07886 0.0208,0.0555 1.03106,1.819 0.25985,1.819"
       id="path14258" />
    <path
       style="fill:#2a1f9b;fill-opacity:1;stroke:#110066;stroke-width:0.8;stroke-linecap:butt;stroke-linejoin:bevel;stroke-dasharray:none;stroke-opacity:1;paint-order:normal"
       d="m 73.27992,126.03107 c 2.949972,-0.62726 5.829416,-0.77958 8.835167,-0.77958 0.6744,0 1.851893,-0.22697 2.338721,0.25986"
       id="path14260" />
    <path
       style="fill:#2a1f9b;fill-opacity:1;stroke:#110066;stroke-width:0.8;stroke-linecap:butt;stroke-linejoin:bevel;stroke-dasharray:none;stroke-opacity:1;paint-order:normal"
       d="m 141.8824,30.663229 c -3.13015,1.444329 -3.1183,2.16099 -3.1183,4.937299 0,0.519716 -0.0854,1.046502 0,1.559148 0.0901,0.540374 0.44224,1.016825 0.51972,1.559147 0.098,0.68599 -0.0461,1.387443 0,2.078863 0.0407,0.611134 0.21288,1.208318 0.25986,1.819005 0.0664,0.863642 -0.3217,1.794338 0,2.598579 0.33666,0.841663 1.39503,2.17461 2.07886,2.858436"
       id="path14262" />
    <path
       style="fill:#2a1f9b;fill-opacity:1;stroke:#110066;stroke-width:0.8;stroke-linecap:butt;stroke-linejoin:bevel;stroke-dasharray:none;stroke-opacity:1;paint-order:normal"
       d="m 134.60638,162.15131 c 2.03926,-0.47847 4.18601,0.34176 6.23659,0 0.73,-0.12167 1.37151,-0.56193 2.07886,-0.77957 2.08967,-0.64298 3.63534,-0.77691 5.19715,-2.33873"
       id="path14264" />
    <path
       style="fill:#2a1f9b;fill-opacity:1;stroke:#110066;stroke-width:0.8;stroke-linecap:butt;stroke-linejoin:bevel;stroke-dasharray:none;stroke-opacity:1;paint-order:normal"
       d="m 41.837117,165.00975 c -0.259858,0.34647 -0.642617,0.62856 -0.779573,1.03943 -0.191834,0.5755 0.357859,5.44959 0.779573,5.97673 0.171112,0.21389 0.551662,0.10792 0.779574,0.25986 0.288287,0.19219 -0.109567,0.71073 0,1.03943 0.03874,0.11621 0.205076,0.15029 0.259858,0.25986 0.30657,0.61314 0.259363,1.73123 0.519716,2.33872 1.103092,2.57388 0.0066,-1.79279 0.779573,1.29929 0.147058,0.58823 0.06033,1.21568 0,1.819 -0.03554,0.35537 -0.419576,0.72 -0.259858,1.03943 0.116211,0.23243 0.523251,-0.0427 0.779574,0 0.270187,0.045 0.519716,0.17324 0.779574,0.25986"
       id="path14266" />
    <path
       style="fill:#2a1f9b;fill-opacity:1;stroke:#110066;stroke-width:0.8;stroke-linecap:butt;stroke-linejoin:bevel;stroke-dasharray:none;stroke-opacity:1;paint-order:normal"
       d="m 35.600528,110.69945 c -0.269348,-4.48227 2.030122,-8.53579 3.118295,-12.733032 1.531998,-5.909141 0.159938,-1.439442 0.519716,-4.677442 0.280865,-2.527795 0.259858,-0.341691 0.259858,-1.299289"
       id="path14268" />
    <path
       style="fill:#2a1f9b;fill-opacity:1;stroke:#110066;stroke-width:0.8;stroke-linecap:butt;stroke-linejoin:bevel;stroke-dasharray:none;stroke-opacity:1;paint-order:normal"
       d="m 152.01685,80.036224 c 0.36501,0.895483 0.96834,1.688452 1.29929,2.598579 0.27749,0.763077 0.0591,1.21665 0.25986,1.819005 0.32823,0.984674 0.30501,0.12422 1.03943,1.29929 0.24723,0.395554 0.25222,0.917151 0.51972,1.299289 1.12131,1.601875 3.15122,2.92358 4.9373,3.63801 0.63098,0.252394 1.67957,-0.131828 2.33872,0 0.18992,0.03798 0.32866,0.228016 0.51971,0.259858 0.49451,0.08242 1.83727,0 2.33872,0"
       id="path14270" />
    <path
       style="fill:#2a1f9b;fill-opacity:1;stroke:#110066;stroke-width:0.8;stroke-linecap:butt;stroke-linejoin:bevel;stroke-dasharray:none;stroke-opacity:1;paint-order:normal"
       d="m 36.63996,19.229482 c 2.480582,-1.260779 7.751236,-3.140544 10.394315,-1.819005 0.387374,0.193687 -0.991606,0.349126 -1.039432,0.779574 -0.07285,0.655638 0.330698,1.335601 0.779574,1.819005 1.781326,1.918351 1.698413,1.819005 3.118294,1.819005"
       id="path14272" />
  </g>
</svg>
