<?xml version="1.0" encoding="UTF-8" standalone="no"?>
<!-- Created with Inkscape (http://www.inkscape.org/) -->

<svg
   width="200mm"
   height="200mm"
   viewBox="0 0 200 200"
   version="1.1"
   id="svg5"
   inkscape:version="1.2.2 (732a01da63, 2022-12-09)"
   sodipodi:docname="ocean1.svg"
   xmlns:inkscape="http://www.inkscape.org/namespaces/inkscape"
   xmlns:sodipodi="http://sodipodi.sourceforge.net/DTD/sodipodi-0.dtd"
   xmlns="http://www.w3.org/2000/svg"
   xmlns:svg="http://www.w3.org/2000/svg">
  <sodipodi:namedview
     id="namedview7"
     pagecolor="#ffffff"
     bordercolor="#000000"
     borderopacity="0.25"
     inkscape:showpageshadow="2"
     inkscape:pageopacity="0.0"
     inkscape:pagecheckerboard="0"
     inkscape:deskcolor="#d1d1d1"
     inkscape:document-units="mm"
     showgrid="false"
     inkscape:zoom="1.0181848"
     inkscape:cx="432.63267"
     inkscape:cy="384.99888"
     inkscape:window-width="1920"
     inkscape:window-height="991"
     inkscape:window-x="-9"
     inkscape:window-y="-9"
     inkscape:window-maximized="1"
     inkscape:current-layer="layer4" />
  <defs
     id="defs2" />
  <g
     inkscape:groupmode="layer"
     id="layer3"
     inkscape:label="Background">
    <rect
       style="fill:#2a1f9b;fill-opacity:1;stroke:#ff522b;stroke-width:0;stroke-linecap:butt;stroke-linejoin:bevel;stroke-dasharray:none;stroke-opacity:1;paint-order:normal"
       id="rect11023"
       width="200"
       height="200"
       x="5e-07"
       y="5e-07" />
  </g>
  <g
     inkscape:groupmode="layer"
     id="layer4"
     inkscape:label="Waves">
    <path
       style="fill:#2a1f9b;fill-opacity:1;stroke:#3a007a;stroke-width:0.499999;stroke-linecap:butt;stroke-linejoin:bevel;stroke-dasharray:none;stroke-opacity:1;paint-order:normal"
       d="m 50.672285,88.871392 c 0.346477,0.08662 0.952812,0.606335 1.039431,0.259858 0.08662,-0.346477 -1.378246,-0.372795 -1.039431,-0.259858 1.378818,0.459605 2.175399,0.440179 3.378152,1.299289 0.15761,0.112578 0.0987,0.412277 0.259858,0.519716 0.216215,0.144143 0.595826,-0.183748 0.779574,0 0.183748,0.183745 -0.08217,0.533051 0,0.779574 0.117417,0.352248 0.895252,0.447625 1.039431,0.519716 0.445376,0.222686 0.289783,0.809498 0.519716,1.039431 0.183748,0.183745 0.527473,-0.06303 0.779574,0 1.167558,0.291888 2.020837,0.933469 3.118294,1.299289 0.246523,0.08218 0.522327,-0.03675 0.779574,0 0.874469,0.124923 1.732386,0.346478 2.598578,0.519716"
       id="path14191" />
    <path
       style="fill:#2a1f9b;fill-opacity:1;stroke:#3a007a;stroke-width:0.499999;stroke-linecap:butt;stroke-linejoin:bevel;stroke-dasharray:none;stroke-opacity:1;paint-order:normal"
       d="m 154.35557,92.509402 c 1.58726,-0.709308 2.59711,-2.077685 3.89787,-3.118294 2.04591,-1.636726 -0.67068,0.738912 1.81901,-1.039432 0.29904,-0.213603 0.4738,-0.575725 0.77957,-0.779573 1.68794,-1.125292 0.2444,0.0052 1.03943,-0.259858 0.44252,-0.147508 0.84189,-0.428236 1.29929,-0.519716 0.42469,-0.08494 0.87318,0.07747 1.29929,0 1.31558,-0.239196 2.8539,-0.778666 4.15773,-1.039431 0.37778,-0.07556 3.34763,-0.24765 3.37815,-0.259858 0.47189,-0.188757 1.03021,-0.907198 1.55915,-1.039432 0.2521,-0.06303 0.53305,0.08218 0.77957,0 1.03943,-0.346477 -1.12605,-0.259858 0.25986,-0.259858"
       id="path14193" />
    <path
       style="fill:#2a1f9b;fill-opacity:1;stroke:#3a007a;stroke-width:0.499999;stroke-linecap:butt;stroke-linejoin:bevel;stroke-dasharray:none;stroke-opacity:1;paint-order:normal"
       d="m 116.41633,152.79643 c -0.25986,0.34647 -0.55675,0.66805 -0.77958,1.03943 -0.18768,0.3128 0.20417,0.29697 0.25986,0.51971 0.063,0.2521 -0.0822,0.53305 0,0.77958 0.28689,0.86067 1.00242,1.70796 1.29929,2.59858 0.1289,0.38669 0.0804,0.9404 0.25986,1.29928 0.0387,0.0775 0.1986,-0.0612 0.25986,0 0.12249,0.1225 -0.14415,0.42363 0,0.51972 0.22791,0.15194 0.61522,0.0407 0.77957,0.25986 0.25986,0.34648 -0.0866,0.69295 0,1.03943 0.0385,0.1539 0.41845,0.98209 0.25986,1.29929 -0.66386,1.32772 -0.51972,0.19108 -0.51972,1.55915"
       id="path14195" />
    <path
       style="fill:#2a1f9b;fill-opacity:1;stroke:#3a007a;stroke-width:0.499999;stroke-linecap:butt;stroke-linejoin:bevel;stroke-dasharray:none;stroke-opacity:1;paint-order:normal"
       d="m 111.47903,32.222376 c 2.06029,0 0.30976,0.140719 3.37815,-1.039431 0.33333,-0.128207 0.71999,-0.10014 1.03943,-0.259858 0.21913,-0.109567 0.30058,-0.410149 0.51972,-0.519716 0.86382,-0.431911 2.01344,-0.272579 2.85843,-0.779574 0.21008,-0.12605 0.31587,-0.383815 0.51972,-0.519715 0.14414,-0.0961 0.35537,-0.05478 0.51971,0 1.22161,0.407201 2.42262,0.8739 3.63801,1.299289 0.51708,0.180975 1.03944,0.346477 1.55915,0.519716 0.25986,0.08662 0.58589,0.06617 0.77958,0.259858 0.12249,0.122496 0,0.346477 0,0.519715"
       id="path14197" />
    <path
       style="fill:#2a1f9b;fill-opacity:1;stroke:#3a007a;stroke-width:0.499999;stroke-linecap:butt;stroke-linejoin:bevel;stroke-dasharray:none;stroke-opacity:1;paint-order:normal"
       d="m 37.419534,161.37174 c 0.62462,-1.24925 1.454242,-2.38877 2.078863,-3.63801 0.554632,-1.10927 1.098547,-2.22666 1.559147,-3.37816 0.406916,-1.01729 0.523827,-2.15153 1.039431,-3.11829 0.203809,-0.38214 0.76217,-0.44686 1.039432,-0.77957 0.507404,-0.60889 0.0056,-0.78521 0.519715,-1.29929 0.06125,-0.0613 0.187786,0.048 0.259858,0 0.617075,-0.41139 0.473268,-0.80343 1.29929,-1.03944 0.49508,-0.14144 1.925664,0.1532 2.338721,-0.25985 1.115224,-1.11523 -1.277636,0.065 1.299289,-1.03944 1.021704,-0.43787 0.615791,0.0677 1.039431,-0.77957"
       id="path14199" />
    <path
       style="fill:#2a1f9b;fill-opacity:1;stroke:#3a007a;stroke-width:0.499999;stroke-linecap:butt;stroke-linejoin:bevel;stroke-dasharray:none;stroke-opacity:1;paint-order:normal"
       d="m 39.498397,36.63996 c 5.346879,0.594098 0.611928,-0.294585 3.118294,0.779574 3.414263,1.463254 -0.69111,-0.950969 1.299289,1.039431 0.122497,0.122497 0.364765,-0.07747 0.519716,0 0.07747,0.03874 0,0.173239 0,0.259858 0,0.962501 -0.145402,3.281217 0.779574,3.897868 0.188338,0.125558 3.345899,0.194945 3.63801,0.259858 2.513039,0.558453 0.339873,0.519716 1.299289,0.519716"
       id="path14201" />
    <path
       style="fill:#2a1f9b;fill-opacity:1;stroke:#3a007a;stroke-width:0.499999;stroke-linecap:butt;stroke-linejoin:bevel;stroke-dasharray:none;stroke-opacity:1;paint-order:normal"
       d="m 109.91988,105.24244 c 0.20569,-0.94419 0.64356,-2.75312 0,-3.63801 -0.46971,-0.64585 -1.25432,-0.99446 -1.81901,-1.55915 -0.47837,-0.478371 -0.84983,-1.053512 -1.29928,-1.559147 -0.0509,-0.855776 -0.90711,-0.647247 -1.29929,-1.039431 -0.0613,-0.06125 0.0775,-0.22112 0,-0.259858 -0.15495,-0.07747 -0.35887,0.06434 -0.51972,0 -1.28271,-0.513083 -0.24191,-0.560033 -1.55915,-0.779574 -0.25632,-0.04272 -0.52476,0.05096 -0.77957,0 -0.71504,-0.14301 -1.29929,-0.418459 -1.29929,-1.039431"
       id="path14203" />
    <path
       style="fill:#2a1f9b;fill-opacity:1;stroke:#3a007a;stroke-width:0.499999;stroke-linecap:butt;stroke-linejoin:bevel;stroke-dasharray:none;stroke-opacity:1;paint-order:normal"
       d="m 185.53852,137.46481 c -1.05391,0.15479 -3.00089,-0.20287 -4.15773,0.25986 -0.35966,0.14387 -0.65733,0.45603 -1.03943,0.51972 -0.68352,0.11392 -1.38795,-0.0532 -2.07886,0 -0.44038,0.0339 -0.86363,0.18724 -1.29929,0.25986 -0.0854,0.0142 -0.23885,-0.084 -0.25986,0 -0.084,0.33613 0.14072,0.72281 0,1.03943 -1.28154,2.88346 -1.03093,-0.36187 -1.29929,2.85843 -0.0865,1.03802 0.15466,2.63272 0,3.63801 -0.1719,1.11738 -0.738,1.80345 -1.03943,2.85844 -0.0555,0.19432 -0.0755,1.20711 -0.25986,1.29929 -0.15495,0.0775 -0.34648,0 -0.51971,0 -0.60634,0.34647 -1.21267,0.69295 -1.81901,1.03943"
       id="path14205" />
  </g>
</svg>
