<?xml version="1.0" encoding="UTF-8" standalone="no"?>
<!-- Created with Inkscape (http://www.inkscape.org/) -->

<svg
   width="200mm"
   height="200mm"
   viewBox="0 0 200 200"
   version="1.1"
   id="svg5"
   inkscape:version="1.2.2 (732a01da63, 2022-12-09)"
   sodipodi:docname="shallow3.svg"
   xmlns:inkscape="http://www.inkscape.org/namespaces/inkscape"
   xmlns:sodipodi="http://sodipodi.sourceforge.net/DTD/sodipodi-0.dtd"
   xmlns="http://www.w3.org/2000/svg"
   xmlns:svg="http://www.w3.org/2000/svg">
  <sodipodi:namedview
     id="namedview7"
     pagecolor="#ffffff"
     bordercolor="#000000"
     borderopacity="0.25"
     inkscape:showpageshadow="2"
     inkscape:pageopacity="0.0"
     inkscape:pagecheckerboard="0"
     inkscape:deskcolor="#d1d1d1"
     inkscape:document-units="mm"
     showgrid="false"
     inkscape:zoom="1.0181848"
     inkscape:cx="419.37377"
     inkscape:cy="384.99887"
     inkscape:window-width="1920"
     inkscape:window-height="991"
     inkscape:window-x="-9"
     inkscape:window-y="-9"
     inkscape:window-maximized="1"
     inkscape:current-layer="layer4" />
  <defs
     id="defs2" />
  <g
     inkscape:groupmode="layer"
     id="layer3"
     inkscape:label="Background">
    <rect
       style="fill:#3672bf;fill-opacity:1;stroke:#ff522b;stroke-width:0;stroke-linecap:butt;stroke-linejoin:bevel;stroke-dasharray:none;stroke-opacity:1;paint-order:normal"
       id="rect11023"
       width="200"
       height="200"
       x="5e-07"
       y="5e-07" />
  </g>
  <g
     inkscape:groupmode="layer"
     id="layer4"
     inkscape:label="Waves">
    <path
       style="fill:none;fill-opacity:1;stroke:#94d4ff;stroke-width:0.799999;stroke-linejoin:bevel;stroke-dasharray:none;stroke-opacity:1"
       d="m 43.136407,41.057544 c 2.691484,-0.307533 5.164746,1.001075 7.535878,2.078863 0.424648,0.193021 0.926121,0.239839 1.299289,0.519715 0.346478,0.259858 0.473327,0.733185 0.779574,1.039432 0.50841,0.508413 1.152517,0.565438 1.299289,1.299289 0.251175,1.255877 -0.08811,2.682216 0.519716,3.897868 0.273913,0.547828 0.882518,0.850459 1.299289,1.29929 0.692955,0.779573 1.385909,1.559147 2.078863,2.338721 0.433097,0.173238 0.935046,0.228319 1.29929,0.519715 0.135276,0.10822 -0.07748,0.364765 0,0.519716 0.03874,0.07747 0.183427,-0.04076 0.259858,0 10.993736,6.282134 -2.793389,-1.396696 6.756304,3.378152 1.007669,0.503833 0.390062,2.470026 0.519716,3.118295 0.364649,1.823254 2.948019,3.333358 1.299287,4.157726"
       id="path15044" />
    <path
       style="fill:none;fill-opacity:1;stroke:#94d4ff;stroke-width:0.799999;stroke-linejoin:bevel;stroke-dasharray:none;stroke-opacity:1"
       d="m 135.64581,38.978681 c 1.88094,-0.705353 2.24007,-0.713812 3.89786,-1.819005 0.79719,-0.531456 1.94354,-1.672241 2.85844,-2.078863 0.40361,-0.179383 0.86619,-0.173239 1.29929,-0.259858 0.4331,-0.173239 0.88208,-0.31111 1.29929,-0.519716 3.22773,-1.936641 -0.33777,0.03116 2.33872,-1.039431 0.11374,-0.0455 0.14365,-0.221121 0.25986,-0.259858 3.14116,-1.047054 4.08122,1.886749 7.01616,0 0.77454,-0.497917 1.51954,-1.087581 2.07886,-1.819005 0.50298,-0.657744 1.59116,-4.173728 2.59858,-4.677442 0.6948,-0.347398 2.01466,-1.05821 2.85844,-1.29929 0.24986,-0.07139 0.54715,0.116212 0.77957,0 0.17324,-0.08662 0.17324,-0.346477 0.25986,-0.519716"
       id="path15046" />
    <path
       style="fill:none;fill-opacity:1;stroke:#94d4ff;stroke-width:0.799999;stroke-linejoin:bevel;stroke-dasharray:none;stroke-opacity:1"
       d="m 111.47902,96.926984 c 0.95282,0.779573 1.96342,1.493424 2.85844,2.33872 1.43615,1.356366 2.00792,2.527636 3.37815,3.897866 0.11908,0.11908 0.40948,0.13737 0.51972,0.25986 0.74206,0.82451 1.2406,1.87209 2.07886,2.59858 0.49851,0.43204 1.2492,0.44718 1.81901,0.77957 0.47908,0.27947 0.79246,0.81418 1.29929,1.03943 0.57829,0.25703 1.68295,-0.082 2.33872,0 1.8258,0.22823 1.41367,0.41098 3.37815,0.25986 0.69629,-0.0536 1.40137,-0.0905 2.07886,-0.25986 0.18791,-0.047 0.32722,-0.23846 0.51972,-0.25985 1.46352,-0.16262 2.94505,0 4.41758,0 6.24837,0 0.70929,0.27391 3.37815,-0.25986 0.48764,-0.0975 1.0856,0.14206 1.55915,0 0.63185,-0.18956 1.20134,-0.54795 1.81901,-0.77958 0.76942,-0.28853 1.59407,-0.43207 2.33872,-0.77957 0.6362,-0.29689 1.84039,-1.15456 2.33872,-1.819 0.052,-0.0693 -0.0613,-0.19861 0,-0.25986 0.27427,-0.27428 1.03943,0.29142 1.03943,-0.51972"
       id="path15048" />
    <path
       style="fill:none;fill-opacity:1;stroke:#94d4ff;stroke-width:0.799999;stroke-linejoin:bevel;stroke-dasharray:none;stroke-opacity:1"
       d="m 62.885605,148.89856 c 0.259858,1.03943 0.323363,2.14885 0.779574,3.11829 0.260794,0.5542 0.798901,0.94608 1.299289,1.29929 3.27578,2.31232 4.278572,2.50605 8.835165,2.07886 0.829257,-0.0777 4.265925,-1.82227 4.937299,-2.33872 0.439619,-0.33816 0.647248,-0.9071 1.039432,-1.29929 0.122499,-0.12249 0.348835,0.0285 0.519716,0 0.435665,-0.0726 0.897204,-0.0771 1.299289,-0.25985 0.568635,-0.25847 1.016826,-0.72954 1.559147,-1.03943 1.371074,-0.78348 2.948959,-1.70932 4.417584,-2.33873 1.36225,-0.58382 4.565912,-0.74235 5.457015,-1.29929 1.918637,-1.19914 3.687789,-2.36361 5.716874,-3.37815"
       id="path15050" />
    <path
       style="fill:none;fill-opacity:1;stroke:#94d4ff;stroke-width:0.799999;stroke-linejoin:bevel;stroke-dasharray:none;stroke-opacity:1"
       d="m 56.389158,101.34457 c 1.061882,1.41976 1.553107,2.84032 2.078863,4.41758 0.279588,0.83877 -0.381328,0.92195 -0.779573,1.55915 -1.216335,1.94613 -0.178438,4.67354 1.559147,5.97673 0.697394,0.52305 5.381482,3.16017 6.496447,3.63801 0.159228,0.0682 0.358867,-0.0643 0.519715,0 0.937895,0.37516 1.660681,1.18399 2.598576,1.55915 1.950522,0.78021 1.871245,-0.15538 2.598579,1.29929 0.25617,0.51233 -0.704667,0.96452 -1.039431,1.29929"
       id="path15052" />
    <path
       style="fill:none;fill-opacity:1;stroke:#94d4ff;stroke-width:0.799999;stroke-linejoin:bevel;stroke-dasharray:none;stroke-opacity:1"
       d="m 122.39305,163.19074 c 0.95282,-0.51971 2.00658,-0.88662 2.85844,-1.55915 0.81866,-0.64631 1.35867,-1.58423 2.07886,-2.33872 1.88441,-1.97414 4.40974,-4.4281 6.49645,-6.23659 0.86692,-0.75133 2.40564,-0.77562 3.37815,-1.29929 0.48834,-0.26295 0.81238,-0.77384 1.29929,-1.03943 0.65024,-0.35467 2.2473,-0.28114 1.55915,-1.55914 -3.27478,-6.08173 -0.43637,0.0274 -3.63801,-7.01617 -0.34004,-0.74809 -1.14707,-1.60373 -0.77957,-2.33872 0.0387,-0.0775 0.17845,0.0296 0.25985,0 0.87675,-0.31882 1.70357,-0.77619 2.59858,-1.03943 1.01095,-0.29734 2.20337,0.003 3.1183,-0.51971 0.27116,-0.15496 0.24037,-0.63991 0.51971,-0.77958 0.47126,-0.23563 1.06399,-0.0798 1.55915,-0.25986 0.47467,-0.1726 0.83775,-0.57444 1.29929,-0.77957 0.32636,-0.14505 0.73319,-0.0761 1.03943,-0.25986 0.33217,-0.1993 0.28729,-0.72953 0.51972,-1.03943 0.66556,-0.88741 1.4729,-1.66944 2.07886,-2.59858 1.2689,-1.94565 1.76028,-3.24112 2.59858,-5.19716"
       id="path15054" />
    <path
       style="fill:none;fill-opacity:1;stroke:#94d4ff;stroke-width:0.799999;stroke-linejoin:bevel;stroke-dasharray:none;stroke-opacity:1"
       d="m 177.22307,71.980628 c 0.21477,-3.023476 0.52696,-5.569791 2.07886,-8.315449 0.66577,-1.177904 1.81214,-2.017284 2.59858,-3.118295 0.33043,-0.462603 0.83707,-1.748708 1.29929,-2.078863 0.37957,-0.271124 0.92612,-0.239842 1.29929,-0.519716 0.34647,-0.259857 0.49437,-0.713494 0.77957,-1.039431 0.32266,-0.368758 0.78733,-0.619268 1.03943,-1.039432 0.28186,-0.469759 0.25739,-1.078211 0.51972,-1.559147 0.26558,-0.486913 0.79139,-0.803211 1.03943,-1.299289 0.2885,-0.577006 0.51971,-4.23649 0.51971,-4.9373"
       id="path15056" />
    <path
       style="fill:none;fill-opacity:1;stroke:#94d4ff;stroke-width:0.799999;stroke-linejoin:bevel;stroke-dasharray:none;stroke-opacity:1"
       d="m 173.84491,156.69429 c 0.72478,1.04633 -0.0723,2.29872 0.25986,3.37816 0.20537,0.66746 0.83113,1.15244 1.03943,1.819 0.23396,0.74867 0.12355,1.56629 0.25986,2.33872 0.12413,0.70341 0.76382,1.40759 0.51972,2.07887 -0.31801,0.8745 -6.42615,1.72072 -5.19716,2.59857 0.5368,0.38343 1.28704,0.38947 1.819,0.77958 0.79027,0.57953 1.36244,1.4102 2.07887,2.07886 0.58381,0.54489 1.16477,1.10119 1.819,1.55915 0.2244,0.15708 0.58589,0.0662 0.77958,0.25986 0.12249,0.12249 -0.0918,0.3728 0,0.51971 0.35855,0.57369 1.05643,0.92772 1.29929,1.55915 0.43467,1.13016 -0.23407,2.72883 -0.77958,3.63801 -0.18907,0.31512 -0.64309,0.43836 -0.77957,0.77957 -0.3293,0.82324 1.44581,1.03943 1.819,1.03943"
       id="path15058" />
    <path
       style="fill:none;fill-opacity:1;stroke:#94d4ff;stroke-width:0.799999;stroke-linejoin:bevel;stroke-dasharray:none;stroke-opacity:1"
       d="m 43.396265,185.27866 c -2.795233,-2.39591 -1.78547,-1.24563 -4.417584,-5.45702 -0.472655,-0.75624 -0.840462,-1.574 -1.29929,-2.33872 -0.06129,-0.10215 -0.713912,-0.53362 -0.259857,-0.77957 2.024681,-1.0967 12.094911,-4.62155 12.992893,-7.01616 0.375838,-1.00224 -1.499674,-0.89599 -4.417584,-1.55915 -3.817723,-0.86766 -8.431588,-1.52549 -11.693604,-3.89787 -0.447791,-0.32567 -0.188211,-1.7445 -0.259858,-2.07886 -0.965631,-4.50628 -2.14879,-6.46195 -1.819005,-10.91403 0.0607,-0.8195 0.547706,-1.55037 0.779574,-2.33872 0.201546,-0.68526 0.224144,-1.42861 0.519715,-2.07887 0.760765,-1.67368 1.504371,-0.0913 0,-2.59857"
       id="path15060" />
    <path
       style="fill:none;fill-opacity:1;stroke:#94d4ff;stroke-width:0.799999;stroke-linejoin:bevel;stroke-dasharray:none;stroke-opacity:1"
       d="m 33.521665,77.437643 c 3.433295,-0.01974 6.772191,2.143252 9.8746,3.118295 2.343853,0.736642 8.405068,0.758666 10.91403,0.519715 0.879367,-0.08375 1.729478,-0.361696 2.598579,-0.519715 0.941377,-0.171159 3.128179,-0.31776 3.897868,-0.779574 0.14855,-0.08913 -0.07747,-0.364765 0,-0.519716 0.03874,-0.07747 0.182383,0.03874 0.259858,0 0.279336,-0.139668 0.519716,-0.346477 0.779573,-0.519716"
       id="path15062" />
    <path
       style="fill:none;fill-opacity:1;stroke:#94d4ff;stroke-width:0.799999;stroke-linejoin:bevel;stroke-dasharray:none;stroke-opacity:1"
       d="m 99.78542,55.089869 c -4.889476,-2.425904 1.30015,-8.043524 1.03943,-11.693604 -0.25002,-3.500364 -4.268537,-4.525534 -6.756303,-5.976731 -0.149638,-0.08729 0.04202,-0.35165 0,-0.519716 -0.06643,-0.265737 -0.206137,-0.510979 -0.259858,-0.779574 -0.471985,-2.359924 4.733094,-2.77795 5.716873,-4.417584 0.222827,-0.371377 0.06125,-0.870545 0,-1.299289 -0.112937,-0.790564 -0.179678,-1.616141 -0.519716,-2.338721 -0.368821,-0.783749 -0.979693,-1.435028 -1.559147,-2.078863 -0.851643,-0.946273 -0.779573,-0.102426 -0.779573,-0.779574"
       id="path15064" />
  </g>
</svg>
