<?xml version="1.0" encoding="UTF-8" standalone="no"?>
<!-- Created with Inkscape (http://www.inkscape.org/) -->

<svg
   width="200mm"
   height="200mm"
   viewBox="0 0 200 200"
   version="1.1"
   id="svg5"
   inkscape:version="1.2.2 (732a01da63, 2022-12-09)"
   sodipodi:docname="shallow1.svg"
   xmlns:inkscape="http://www.inkscape.org/namespaces/inkscape"
   xmlns:sodipodi="http://sodipodi.sourceforge.net/DTD/sodipodi-0.dtd"
   xmlns="http://www.w3.org/2000/svg"
   xmlns:svg="http://www.w3.org/2000/svg">
  <sodipodi:namedview
     id="namedview7"
     pagecolor="#ffffff"
     bordercolor="#000000"
     borderopacity="0.25"
     inkscape:showpageshadow="2"
     inkscape:pageopacity="0.0"
     inkscape:pagecheckerboard="0"
     inkscape:deskcolor="#d1d1d1"
     inkscape:document-units="mm"
     showgrid="false"
     inkscape:zoom="1.0181848"
     inkscape:cx="419.37377"
     inkscape:cy="384.99887"
     inkscape:window-width="1920"
     inkscape:window-height="991"
     inkscape:window-x="-9"
     inkscape:window-y="-9"
     inkscape:window-maximized="1"
     inkscape:current-layer="layer4" />
  <defs
     id="defs2" />
  <g
     inkscape:groupmode="layer"
     id="layer3"
     inkscape:label="Background">
    <rect
       style="fill:#3672bf;fill-opacity:1;stroke:#ff522b;stroke-width:0;stroke-linecap:butt;stroke-linejoin:bevel;stroke-dasharray:none;stroke-opacity:1;paint-order:normal"
       id="rect11023"
       width="200"
       height="200"
       x="5e-07"
       y="5e-07" />
  </g>
  <g
     inkscape:groupmode="layer"
     id="layer4"
     inkscape:label="Waves">
    <path
       style="fill:#3672bf;fill-opacity:1;stroke:#94d4ff;stroke-width:0.799999;stroke-linejoin:bevel;stroke-dasharray:none;stroke-opacity:1"
       d="m 106.80158,23.12735 c 2.53697,-0.856937 4.94845,-0.778459 7.53588,-0.519716 1.3772,0.13772 2.83477,-0.06826 4.15773,0.519716 0.50683,0.225258 0.76121,0.904913 1.29929,1.039432 0.33613,0.08403 0.71073,-0.109566 1.03943,0 2.75056,0.916853 5.65458,1.648949 8.31545,2.858437 0.4598,0.208999 0.83505,0.580615 1.29929,0.779573 0.15923,0.06824 0.36477,-0.07747 0.51971,0 0.0775,0.03874 0,0.173239 0,0.259858 0,0.433097 0,0.866193 0,1.29929 0,5.312515 -0.13474,0.731382 0.25986,4.677441 0.12821,1.282073 -0.18203,2.623677 0,3.897868 0.10547,0.738267 0.25986,1.308465 0.25986,2.078863 0,0.346477 -0.3287,0.929865 0,1.039432 0.24652,0.08217 0.57666,-0.162333 0.77957,0 0.30249,0.24199 0.27173,0.741841 0.51972,1.039431 0.19993,0.239922 0.55874,0.298879 0.77957,0.519716 0.13696,0.136956 0.12291,0.382757 0.25986,0.519716 0.0613,0.06125 0.18238,-0.03874 0.25986,0 0.91194,0.455972 0.90835,0.691414 1.55915,1.559147"
       id="path8841" />
    <path
       style="fill:none;fill-opacity:1;stroke:#94d4ff;stroke-width:0.799999;stroke-linejoin:bevel;stroke-dasharray:none;stroke-opacity:1"
       d="m 33.00195,48.593422 c 0.153701,-0.408183 1.742826,-0.770604 2.078863,-1.039431 0.243871,-0.195099 0.248555,-0.624626 0.519715,-0.779574 0.914927,-0.522817 2.108965,-0.216919 3.118295,-0.519716 0.299138,-0.08974 0.489601,-0.403728 0.779574,-0.519716 0.321696,-0.12868 0.696436,0.049 1.039431,0 0.958699,-0.136958 1.932829,-0.234913 2.858437,-0.519715 0.99882,-0.30733 2.431274,-1.384213 3.63801,-1.039432 1.893157,0.540901 1.685837,1.398053 2.598578,2.858437 0.194771,0.311634 0.615226,0.450876 0.779574,0.779573 0.06882,0.137637 0.05913,0.838703 0.259858,1.039432 0.136671,0.13667 4.169537,0.03816 4.417584,0 1.045043,-0.160777 1.161449,-0.519716 2.078863,-0.519716"
       id="path12805" />
    <path
       style="fill:none;fill-opacity:1;stroke:#94d4ff;stroke-width:0.799999;stroke-linejoin:bevel;stroke-dasharray:none;stroke-opacity:1"
       d="m 97.186841,85.233379 c 3.638009,1.21267 7.257229,2.483234 10.914029,3.63801 1.28228,0.404929 2.61439,0.638345 3.89787,1.039432 0.11692,0.03654 0.15278,0.200369 0.25986,0.259858 2.78489,1.547161 5.26487,3.18948 8.57531,2.858436 11.33426,-1.133424 2.42885,0.153808 5.71687,-1.819005 0.46456,-0.278736 0.98748,0.207891 1.29929,0.259858 0.4272,0.0712 0.86619,0 1.29929,0 2.44006,0 4.82949,0.259858 7.27602,0.259858 1.05852,0 3.01083,-0.247018 3.89787,0.259858 0.23782,0.135901 0.17324,0.519716 0.25986,0.779574"
       id="path12807" />
    <path
       style="fill:none;fill-opacity:1;stroke:#94d4ff;stroke-width:0.799999;stroke-linejoin:bevel;stroke-dasharray:none;stroke-opacity:1"
       d="m 33.261808,140.58311 c 2.314657,0.13437 4.310938,-2.85844 6.756304,-2.85844 1.365801,0 3.129227,1.23339 4.417584,1.819 1.115602,0.5071 3.831606,0.97317 4.677442,1.81901 1.127601,1.1276 1.753428,2.98796 3.118294,3.89787 1.318382,0.87892 4.992629,-1.48841 5.976731,-2.07887 0.555329,-0.33319 1.479944,0.0792 2.078863,-0.51971"
       id="path12809" />
    <path
       style="fill:none;fill-opacity:1;stroke:#94d4ff;stroke-width:0.799999;stroke-linejoin:bevel;stroke-dasharray:none;stroke-opacity:1"
       d="m 108.10087,150.45771 c 3.26639,0.44339 6.7465,-2.29566 10.13446,-1.55915 1.67813,0.36481 4.49885,1.7254 6.23659,2.33872 0.59465,0.20987 1.22637,0.30421 1.819,0.51971 1.33419,0.48517 2.58233,1.29279 3.89787,1.81901 0.76297,0.30519 1.58019,0.46352 2.33872,0.77957 1.32351,0.55147 2.54456,1.34535 3.89787,1.81901 0.40878,0.14307 0.87209,-0.0712 1.29929,0 0.12083,0.0201 0.13902,0.23972 0.25986,0.25986 1.38103,0.23017 2.80446,-0.1095 4.15772,-0.25986 0.60263,-0.067 1.22092,0.0997 1.81901,0 0.63865,-0.10644 4.06238,-1.09738 4.15772,-0.77958 0.25383,0.8461 0.30548,1.74161 0.51972,2.59858 0.29231,1.16924 1.12863,2.44336 1.29929,3.63801 0.049,0.343 -0.0952,0.70629 0,1.03944 0.0858,0.30029 0.42095,0.48329 0.51972,0.77957 0.18242,0.54727 0.13607,1.68293 -0.25986,2.07886"
       id="path12811" />
    <path
       style="fill:none;fill-opacity:1;stroke:#94d4ff;stroke-width:0.799999;stroke-linejoin:bevel;stroke-dasharray:none;stroke-opacity:1"
       d="m 57.688448,178.78221 c 3.204913,-0.86619 6.347055,-2.01207 9.614741,-2.59858 0.307395,-0.0552 0.278,0.58181 0.519716,0.77958 1.675989,1.37126 3.395366,2.69667 5.197154,3.89787 0.297159,0.1981 0.70062,0.14692 1.039432,0.25985 0.662511,0.22084 1.194385,0.72712 1.819005,1.03944 0.590031,0.29501 1.193186,0.57096 1.819005,0.77957 0.08217,0.0274 0.198609,-0.0613 0.259858,0 0.136959,0.13696 0.08003,0.44778 0.259858,0.51971 0.96725,0.3869 3.80583,-0.25985 4.937299,-0.25985"
       id="path12813" />
    <path
       style="fill:none;fill-opacity:1;stroke:#94d4ff;stroke-width:0.799999;stroke-linejoin:bevel;stroke-dasharray:none;stroke-opacity:1"
       d="m 161.11188,126.29092 c 19.3302,-1.61085 10.35204,-2.92415 24.94635,1.81901 1.2075,0.39244 1.03943,-0.14121 1.03943,0.77957"
       id="path12815" />
    <path
       style="fill:none;fill-opacity:1;stroke:#94d4ff;stroke-width:0.799999;stroke-linejoin:bevel;stroke-dasharray:none;stroke-opacity:1"
       d="m 164.23017,50.932143 c 1.32614,-2.521646 7.15855,-2.345838 9.8746,-3.897868 1.01056,-0.577464 0,-0.649645 1.29929,-1.29929 0.73499,-0.367495 1.60373,-0.41208 2.33872,-0.779573 0.3287,-0.164349 0.50301,-0.537578 0.77958,-0.779574 0.97317,-0.851527 2.24957,-1.774433 3.37815,-2.338721 0.81306,-0.406535 1.79257,-0.457171 2.59858,-0.779573 2.09876,-0.839507 2.30141,-0.779574 4.41758,-0.779574"
       id="path12817" />
  </g>
</svg>
