<?xml version="1.0" encoding="UTF-8" standalone="no"?>
<!-- Created with Inkscape (http://www.inkscape.org/) -->

<svg
   width="200mm"
   height="200mm"
   viewBox="0 0 200 200"
   version="1.1"
   id="svg5"
   inkscape:version="1.2.2 (732a01da63, 2022-12-09)"
   sodipodi:docname="shallow2.svg"
   xmlns:inkscape="http://www.inkscape.org/namespaces/inkscape"
   xmlns:sodipodi="http://sodipodi.sourceforge.net/DTD/sodipodi-0.dtd"
   xmlns="http://www.w3.org/2000/svg"
   xmlns:svg="http://www.w3.org/2000/svg">
  <sodipodi:namedview
     id="namedview7"
     pagecolor="#ffffff"
     bordercolor="#000000"
     borderopacity="0.25"
     inkscape:showpageshadow="2"
     inkscape:pageopacity="0.0"
     inkscape:pagecheckerboard="0"
     inkscape:deskcolor="#d1d1d1"
     inkscape:document-units="mm"
     showgrid="false"
     inkscape:zoom="1.0181848"
     inkscape:cx="419.37377"
     inkscape:cy="384.99887"
     inkscape:window-width="1920"
     inkscape:window-height="991"
     inkscape:window-x="-9"
     inkscape:window-y="-9"
     inkscape:window-maximized="1"
     inkscape:current-layer="layer4" />
  <defs
     id="defs2" />
  <g
     inkscape:groupmode="layer"
     id="layer3"
     inkscape:label="Background">
    <rect
       style="fill:#3672bf;fill-opacity:1;stroke:#ff522b;stroke-width:0;stroke-linecap:butt;stroke-linejoin:bevel;stroke-dasharray:none;stroke-opacity:1;paint-order:normal"
       id="rect11023"
       width="200"
       height="200"
       x="5e-07"
       y="5e-07" />
  </g>
  <g
     inkscape:groupmode="layer"
     id="layer4"
     inkscape:label="Waves">
    <path
       style="fill:none;fill-opacity:1;stroke:#94d4ff;stroke-width:0.799999;stroke-linejoin:bevel;stroke-dasharray:none;stroke-opacity:1"
       d="m 48.333564,33.781523 c 2.5669,-0.513381 1.220587,-0.162102 5.197158,-1.819005 1.383704,-0.576545 3.685635,-2.203286 5.457015,-1.559147 0.52124,0.189542 0.803209,0.79139 1.299289,1.039431 0.395044,0.197523 0.889204,0.09583 1.29929,0.259858 0.648398,0.259358 1.156493,0.818595 1.819005,1.039432 0.437613,0.14587 0.778547,0.0705 1.299289,0.259858 0.992886,0.36105 2.680872,1.282829 3.897865,1.039431 1.966529,-0.393306 4.163897,-1.172445 5.976732,-2.078863 0.964633,-0.482317 2.246077,-1.299289 3.378152,-1.299289"
       id="path15011" />
    <path
       style="fill:none;fill-opacity:1;stroke:#94d4ff;stroke-width:0.799999;stroke-linejoin:bevel;stroke-dasharray:none;stroke-opacity:1"
       d="m 127.59021,67.563047 c 0.28507,0.346345 4.92691,-0.27372 4.9373,-0.259858 1.35526,1.807003 2.32514,3.878847 3.63801,5.71687 0.0504,0.07048 0.19861,-0.06125 0.25986,0 0.0613,0.06125 -0.0796,0.225738 0,0.259858 1.67819,0.719225 4.61215,1.660131 6.49645,2.078863 1.19581,0.265737 2.42052,0.38444 3.63801,0.519716 0.23446,0.02606 1.08987,-0.104706 1.29929,0 0.0775,0.03874 -0.021,0.175826 0,0.259858 0.0664,0.265737 0.0816,0.571603 0.25985,0.779573 0.83843,0.978168 1.39708,1.199166 2.59858,1.29929 1.48115,0.123431 2.24321,0.03821 3.63801,-0.519716 1.00392,-0.401569 0.79024,-0.519716 1.81901,-0.519716"
       id="path15013" />
    <path
       style="fill:none;fill-opacity:1;stroke:#94d4ff;stroke-width:0.799999;stroke-linejoin:bevel;stroke-dasharray:none;stroke-opacity:1"
       d="m 54.050437,127.59021 c 4.839153,2.63954 3.115495,1.92958 10.914031,4.15773 0.313703,0.0896 1.11901,0 1.559147,0 2.07886,0 4.157723,0 6.236586,0 3.752239,0 7.706255,0.31062 11.433747,0 0.880298,-0.0734 1.722982,-0.40297 2.598579,-0.51972 0.429297,-0.0572 0.869537,0.0537 1.299289,0 1.197152,-0.14964 2.223958,-0.94801 3.378152,-1.29929 1.969712,-0.59947 3.979289,-1.05978 5.976731,-1.55914 0.40762,-0.10191 0.89167,0.1019 1.29929,0 0.11884,-0.0297 0.137969,-0.24767 0.259857,-0.25986 0.775706,-0.0776 1.560034,0.0371 2.338724,0 3.11351,-0.14826 2.71308,-0.16981 5.45701,-0.77958"
       id="path15015" />
    <path
       style="fill:none;fill-opacity:1;stroke:#94d4ff;stroke-width:0.799999;stroke-linejoin:bevel;stroke-dasharray:none;stroke-opacity:1"
       d="m 56.1293,72.760201 c 1.690555,-0.03842 3.647223,-0.679315 5.197158,-1.299289 0.899165,-0.359667 1.683895,-0.981138 2.598578,-1.299289 4.776679,-1.661454 1.983111,0.284181 6.236587,-2.078863 0.924269,-0.51348 1.691933,-1.275017 2.598578,-1.819003 0.141478,-0.08489 1.128845,-0.527703 1.29929,-0.259858 4.496683,7.066217 -3.136585,-2.573961 6.496447,8.055592 0.11131,0.122825 3.146951,4.417584 4.417583,4.417584"
       id="path15017" />
    <path
       style="fill:none;fill-opacity:1;stroke:#94d4ff;stroke-width:0.799999;stroke-linejoin:bevel;stroke-dasharray:none;stroke-opacity:1"
       d="m 144.74083,169.68719 c 1.69602,0.6231 3.2499,-0.59734 4.9373,-0.25986 0.88677,0.17735 1.72402,0.54943 2.59858,0.77957 0.7723,0.20324 1.58665,0.25112 2.33872,0.51972 2.98836,1.06727 -0.16851,0.58357 2.33872,1.03943 0.60261,0.10956 1.2336,0.0797 1.81901,0.25986 4.79696,1.47599 -0.51446,0.15802 2.33872,1.29929 0.16085,0.0643 0.43676,-0.15209 0.51971,0 2.00458,3.67506 -0.26035,2.26899 3.1183,5.19716 0.79524,0.68921 3.62032,1.86625 4.41758,2.07886 1.20664,0.32177 2.92724,-0.12305 4.15773,0 0.83398,0.0834 1.73188,0.4332 2.59858,0.25986 0.61835,-0.12368 1.23351,-0.28552 1.819,-0.51972 0.6484,-0.25936 1.27369,-0.60318 1.81901,-1.03943 1.73238,-1.38591 -1.29929,0.25986 0.77957,-0.77957"
       id="path15019" />
    <path
       style="fill:none;fill-opacity:1;stroke:#94d4ff;stroke-width:0.799999;stroke-linejoin:bevel;stroke-dasharray:none;stroke-opacity:1"
       d="m 155.65486,122.65291 c 1.73952,-1.32757 4.05753,-1.37911 5.97673,-2.33872 0.49608,-0.24804 0.77312,-0.86404 1.29929,-1.03943 0.77583,-0.25861 2.71941,-0.10135 3.37816,0 0.62326,0.0959 1.19954,0.40173 1.819,0.51972 1.70534,0.32482 3.89437,0.68539 5.71687,0.51971 0.89355,-0.0812 0.75953,-0.42419 1.55915,-0.77957 0.46236,-0.20549 3.87023,-1.29929 4.41758,-1.29929"
       id="path15021" />
    <path
       style="fill:none;fill-opacity:1;stroke:#94d4ff;stroke-width:0.799999;stroke-linejoin:bevel;stroke-dasharray:none;stroke-opacity:1"
       d="m 163.19074,43.396265 c 1.20262,-0.34361 2.54773,-0.645123 3.63801,-1.29929 0.31513,-0.189074 0.4605,-0.597246 0.77957,-0.779573 0.45747,-0.261409 1.10735,0.01122 1.55915,-0.259858 0.0866,-0.05199 0.96582,-1.00238 1.29929,-1.039432 2.98994,-0.332216 1.13429,0.481769 3.63801,-0.519715 0.46895,-0.187579 0.82014,-0.619856 1.29929,-0.779574 1.1491,-0.383035 2.96391,0.387069 4.15773,0.519716 0.43044,0.04783 0.99304,0.306244 1.29929,0 0.34647,-0.346478 -0.4331,-0.259858 0.25985,-0.259858"
       id="path15023" />
    <path
       style="fill:none;fill-opacity:1;stroke:#94d4ff;stroke-width:0.799999;stroke-linejoin:bevel;stroke-dasharray:none;stroke-opacity:1"
       d="m 38.199107,180.0815 c 4.989663,-0.38413 8.902682,-3.71953 12.992894,-6.23659 0.594751,-0.366 1.237943,-0.65205 1.819005,-1.03943 0.305773,-0.20385 0.456951,-0.6036 0.779573,-0.77957 2.840429,-1.54933 3.890524,-1.69796 7.016163,-3.63801 0.32453,-0.20143 4.816843,-3.61605 5.457015,-4.15773 0.374052,-0.31651 0.652653,-0.7386 1.039432,-1.03943 1.649896,-1.28325 0.90665,-0.45389 2.858434,-1.03943 1.633175,-0.48995 2.937806,-1.84546 4.417584,-2.33872 0.75761,-0.25254 1.569264,-0.30598 2.33872,-0.51972 0.791766,-0.21993 1.545934,-0.56336 2.338721,-0.77957 1.066917,-0.29098 1.047298,0.25514 2.338721,-0.51972 0.475597,-0.28536 0.803212,-0.79139 1.299289,-1.03943 0.35527,-0.17763 1.219441,0.22647 1.559148,0 0.203851,-0.1359 0.300585,-0.41015 0.519715,-0.51971 0.681821,-0.34091 1.206752,0.35239 2.338721,-0.77958"
       id="path15025" />
    <path
       style="fill:none;fill-opacity:1;stroke:#94d4ff;stroke-width:0.799999;stroke-linejoin:bevel;stroke-dasharray:none;stroke-opacity:1"
       d="m 123.9522,97.186841 c 0.63129,2.420903 1.82762,4.763609 2.07887,7.276019 0.0344,0.34362 -0.0745,1.5166 0,1.55915 4.39071,2.50898 -0.69911,-0.69542 3.63801,1.03943 0.3412,0.13649 0.4738,0.57573 0.77957,0.77957 0.18396,0.79233 0.71999,0.10014 1.03943,0.25986 0.50983,0.25491 1.04932,0.78452 1.55915,1.03943 0.13007,0.065 3.12496,1.30596 3.37815,1.55915"
       id="path15027" />
  </g>
</svg>
