<svg xmlns="http://www.w3.org/2000/svg" xmlns:xlink="http://www.w3.org/1999/xlink" version="1.1" width="1080" height="1080" viewBox="0 0 1080 1080" xml:space="preserve">
<desc>Created with Fabric.js 3.5.0</desc>
<defs>
</defs>
<g transform="matrix(40.9091 0 0 40.9091 540.0001 540.0001)" id="957592">
<g style="" vector-effect="non-scaling-stroke">
		<g transform="matrix(1 0 0 1 0 2)">
<path style="stroke: rgb(36,39,177); stroke-width: 2; stroke-dasharray: none; stroke-linecap: round; stroke-dashoffset: 0; stroke-linejoin: round; stroke-miterlimit: 4; is-custom-font: none; font-file-url: none; fill: none; fill-rule: nonzero; opacity: 1;" transform=" translate(-12, -14)" d="M 5 9 C 5 7.89543 5.89543 7 7 7 H 17 C 18.1046 7 19 7.89543 19 9 V 14 C 19 17.866 15.866 21 12 21 V 21 C 8.13401 21 5 17.866 5 14 V 9 Z" stroke-linecap="round"/>
</g>
		<g transform="matrix(1 0 0 1 0 -7.5)">
<path style="stroke: rgb(36,39,177); stroke-width: 2; stroke-dasharray: none; stroke-linecap: round; stroke-dashoffset: 0; stroke-linejoin: round; stroke-miterlimit: 4; is-custom-font: none; font-file-url: none; fill: none; fill-rule: nonzero; opacity: 1;" transform=" translate(-12, -4.5)" d="M 8 6 V 5.57546 C 8 4.59379 8.38443 3.61462 9.32606 3.33713 C 10.8514 2.88762 13.1486 2.88762 14.6739 3.33713 C 15.6156 3.61462 16 4.59379 16 5.57546 V 6" stroke-linecap="round"/>
</g>
		<g transform="matrix(1 0 0 1 8.25 -6.25)">
<path style="stroke: rgb(36,39,177); stroke-width: 2; stroke-dasharray: none; stroke-linecap: round; stroke-dashoffset: 0; stroke-linejoin: round; stroke-miterlimit: 4; is-custom-font: none; font-file-url: none; fill: none; fill-rule: nonzero; opacity: 1;" transform=" translate(-20.25, -5.75)" d="M 18.5 7.5 L 22 4" stroke-linecap="round"/>
</g>
		<g transform="matrix(1 0 0 1 -8.25 -6.25)">
<path style="stroke: rgb(36,39,177); stroke-width: 2; stroke-dasharray: none; stroke-linecap: round; stroke-dashoffset: 0; stroke-linejoin: round; stroke-miterlimit: 4; is-custom-font: none; font-file-url: none; fill: none; fill-rule: nonzero; opacity: 1;" transform=" translate(-3.75, -5.75)" d="M 5.5 7.5 L 2 4" stroke-linecap="round"/>
</g>
		<g transform="matrix(1 0 0 1 -8 7.5)">
<path style="stroke: rgb(36,39,177); stroke-width: 2; stroke-dasharray: none; stroke-linecap: round; stroke-dashoffset: 0; stroke-linejoin: round; stroke-miterlimit: 4; is-custom-font: none; font-file-url: none; fill: none; fill-rule: nonzero; opacity: 1;" transform=" translate(-4, -19.5)" d="M 6 18 L 2 21" stroke-linecap="round"/>
</g>
		<g transform="matrix(1 0 0 1 -8.75 0)">
<path style="stroke: rgb(36,39,177); stroke-width: 2; stroke-dasharray: none; stroke-linecap: round; stroke-dashoffset: 0; stroke-linejoin: round; stroke-miterlimit: 4; is-custom-font: none; font-file-url: none; fill: none; fill-rule: nonzero; opacity: 1;" transform=" translate(-3.25, -12)" d="M 5 12 H 1.5" stroke-linecap="round"/>
</g>
		<g transform="matrix(1 0 0 1 8.75 0)">
<path style="stroke: rgb(36,39,177); stroke-width: 2; stroke-dasharray: none; stroke-linecap: round; stroke-dashoffset: 0; stroke-linejoin: round; stroke-miterlimit: 4; is-custom-font: none; font-file-url: none; fill: none; fill-rule: nonzero; opacity: 1;" transform=" translate(-20.75, -12)" d="M 22.5 12 H 19" stroke-linecap="round"/>
</g>
		<g transform="matrix(1 0 0 1 8 7.5)">
<path style="stroke: rgb(36,39,177); stroke-width: 2; stroke-dasharray: none; stroke-linecap: round; stroke-dashoffset: 0; stroke-linejoin: round; stroke-miterlimit: 4; is-custom-font: none; font-file-url: none; fill: none; fill-rule: nonzero; opacity: 1;" transform=" translate(-20, -19.5)" d="M 18 18 L 22 21" stroke-linecap="round"/>
</g>
		<g transform="matrix(1 0 0 1 0 5)">
<path style="stroke: rgb(36,39,177); stroke-width: 2; stroke-dasharray: none; stroke-linecap: round; stroke-dashoffset: 0; stroke-linejoin: round; stroke-miterlimit: 4; is-custom-font: none; font-file-url: none; fill: none; fill-rule: nonzero; opacity: 1;" transform=" translate(-12, -17)" d="M 12 13 L 12 21" stroke-linecap="round"/>
</g>
</g>
</g>
</svg>