<svg xmlns="http://www.w3.org/2000/svg" xmlns:xlink="http://www.w3.org/1999/xlink" version="1.1" width="1080" height="1080" viewBox="0 0 1080 1080" xml:space="preserve">
<desc>Created with Fabric.js 3.5.0</desc>
<defs>
</defs>
<g transform="matrix(49.0824 0 0 49.0824 540.0005 540.0005)" id="929027">
<path style="stroke: none; stroke-width: 1; stroke-dasharray: none; stroke-linecap: butt; stroke-dashoffset: 0; stroke-linejoin: miter; stroke-miterlimit: 4; is-custom-font: none; font-file-url: none; fill: rgb(0,0,0); fill-rule: nonzero; opacity: 1;" vector-effect="non-scaling-stroke" transform=" translate(-10, -10.0017)" d="M 7 9 a 1 1 0 0 0 -1 1 v 4 a 4 4 0 1 0 8 0 v -4 a 1 1 0 0 0 -1 -1 H 7 z m 8.236 -1 h 1.647 V 5 a 1 1 0 1 1 2 0 v 3 a 2 2 0 0 1 -2 2 H 16 v 1 h 3 a 1 1 0 0 1 0 2 h -3 v 1 h 0.883 a 2 2 0 0 1 2 2 v 3 a 1 1 0 0 1 -2 0 v -3 h -1.224 A 6.002 6.002 0 0 1 4.34 16 H 3 v 3 a 1 1 0 0 1 -2 0 v -3 a 2 2 0 0 1 2 -2 h 1 v -1 H 1 a 1 1 0 0 1 0 -2 h 3 v -1 H 3 a 2 2 0 0 1 -2 -2 V 5 a 1 1 0 1 1 2 0 v 3 h 1.764 A 3 3 0 0 1 6 7.17 V 5 a 2 2 0 0 1 2 -2 h 0.737 c -0.343 -0.598 -0.988 -1 -1.726 -1 H 5 a 1 1 0 1 1 0 -2 h 2.01 A 3.98 3.98 0 0 1 10 1.348 A 3.98 3.98 0 0 1 12.99 0 H 15 a 1 1 0 0 1 0 2 h -2.01 c -0.74 0 -1.384 0.402 -1.727 1 H 12 a 2 2 0 0 1 2 2 v 2.17 a 3 3 0 0 1 1.236 0.83 z M 8 7 h 4 V 5 H 8 v 2 z" stroke-linecap="round"/>
</g>
</svg>