<svg xmlns="http://www.w3.org/2000/svg" xmlns:xlink="http://www.w3.org/1999/xlink" version="1.1" width="1080" height="1080" viewBox="0 0 1080 1080" xml:space="preserve">
<desc>Created with Fabric.js 3.5.0</desc>
<defs>
</defs>
<g transform="matrix(1.9176 0 0 1.9176 539.9955 539.9957)" id="76702">
<path style="stroke: none; stroke-width: 1; stroke-dasharray: none; stroke-linecap: butt; stroke-dashoffset: 0; stroke-linejoin: miter; stroke-miterlimit: 4; is-custom-font: none; font-file-url: none; fill: rgb(13,111,24); fill-rule: nonzero; opacity: 1;" vector-effect="non-scaling-stroke" transform=" translate(-255.9995, -255.9995)" d="M 495.834 273.694 H 386.471 v -32.382 l 60.121 -23.949 c 6.15 -2.449 10.184 -8.399 10.184 -15.018 V 97.392 c 0 -8.928 -7.238 -16.166 -16.166 -16.166 s -16.166 7.238 -16.166 16.166 v 93.991 l -37.972 15.126 v -18.312 c 0 -8.928 -7.238 -16.166 -16.166 -16.166 h -8.248 V 62.005 c 0 -26.742 -21.757 -48.499 -48.499 -48.499 h -25.443 c -8.928 0 -16.166 7.238 -16.166 16.166 v 47.146 c 0 21.074 -31.899 21.082 -31.899 0 V 29.673 c 0 -8.928 -7.238 -16.166 -16.166 -16.166 h -25.441 c -26.742 0 -48.499 21.757 -48.499 48.499 V 172.03 h -8.248 c -8.928 0 -16.166 7.238 -16.166 16.166 v 18.312 l -37.972 -15.126 V 97.391 c 0 -8.928 -7.238 -16.166 -16.166 -16.166 s -16.166 7.238 -16.166 16.166 v 104.953 c 0 6.62 4.034 12.57 10.184 15.018 l 60.121 23.949 v 32.382 H 16.166 C 7.238 273.693 0 280.931 0 289.859 s 7.238 16.166 16.166 16.166 h 109.363 c 0 11.874 -0.28 19.56 1.689 31.709 l -61.81 24.622 c -6.15 2.449 -10.184 8.399 -10.184 15.018 v 104.953 c 0 8.928 7.238 16.166 16.166 16.166 s 16.166 -7.238 16.166 -16.166 v -16.866 h 18.986 c 8.928 0 16.166 -7.238 16.166 -16.166 s -7.238 -16.166 -16.166 -16.166 H 87.555 v -44.794 l 48.836 -19.453 c 20.151 46.089 66.175 78.38 119.608 78.38 c 53.433 0 99.457 -32.291 119.608 -78.38 l 48.836 19.453 v 44.794 h -18.986 c -8.928 0 -16.166 7.238 -16.166 16.166 s 7.238 16.166 16.166 16.166 h 18.986 v 16.866 c 0 8.928 7.238 16.166 16.166 16.166 s 16.166 -7.238 16.166 -16.166 V 377.376 c 0 -6.62 -4.034 -12.57 -10.184 -15.018 l -61.81 -24.622 c 1.963 -12.109 1.689 -19.798 1.689 -31.708 h 109.363 c 8.928 0 16.166 -7.238 16.166 -16.166 S 504.762 273.694 495.834 273.694 z M 239.834 413.593 c -46.449 -7.733 -81.973 -48.193 -81.973 -96.8 c 0 -16.359 0 -104.296 0 -112.429 c 10.406 0 71.778 0 81.973 0 V 413.593 z M 182.276 172.03 V 62.005 c 0 -8.914 7.252 -16.166 16.166 -16.166 h 9.275 v 30.98 c 0 26.623 21.66 48.281 48.282 48.281 s 48.282 -21.66 48.282 -48.281 v -30.98 h 9.275 c 8.914 0 16.166 7.252 16.166 16.166 V 172.03 H 182.276 z M 354.138 316.792 c 0 48.608 -35.525 89.068 -81.973 96.799 V 204.363 c 10.195 0 71.567 0 81.973 0 C 354.138 212.498 354.138 300.431 354.138 316.792 z" stroke-linecap="round"/>
</g>
</svg>