<svg xmlns="http://www.w3.org/2000/svg" xmlns:xlink="http://www.w3.org/1999/xlink" version="1.1" width="1080" height="1080" viewBox="0 0 1080 1080" xml:space="preserve">
<desc>Created with Fabric.js 3.5.0</desc>
<defs>
</defs>
<g transform="matrix(4.2532 0 0 4.2532 540.0012 540.0014)" id="55404">
<path style="stroke: none; stroke-width: 1; stroke-dasharray: none; stroke-linecap: butt; stroke-dashoffset: 0; stroke-linejoin: miter; stroke-miterlimit: 4; is-custom-font: none; font-file-url: none; fill: rgb(152,140,118); fill-rule: nonzero; opacity: 1;" vector-effect="non-scaling-stroke" transform=" translate(-115.421, -115.4216)" d="m 219.784 152.029 l -22.264 -22.263 c -1.407 -1.407 -3.314 -2.197 -5.303 -2.197 h -21.094 v -5.437 l 26.396 -26.39 c 1.407 -1.406 2.197 -3.314 2.197 -5.304 v -41.421 c 0 -4.142 -3.358 -7.5 -7.5 -7.5 c -4.142 0 -7.5 3.358 -7.5 7.5 v 38.314 l -13.594 13.59 v -6.073 c 0 -4.142 -3.358 -7.5 -7.5 -7.5 h -4.549 v -48.543 c 0 -15.527 -8.362 -30.008 -21.822 -37.792 c -2.321 -1.341 -5.181 -1.344 -7.502 -0.004 c -2.322 1.339 -3.753 3.816 -3.753 6.497 v 41.244 c 0 5.831 -4.744 10.576 -10.574 10.576 c -5.831 0 -10.576 -4.745 -10.576 -10.576 v -41.25 c 0 -2.681 -1.431 -5.158 -3.753 -6.497 c -2.323 -1.339 -5.184 -1.337 -7.503 0.005 c -13.459 7.788 -21.82 22.27 -21.82 37.796 v 48.544 h -4.553 c -4.142 0 -7.5 3.358 -7.5 7.5 v 6.073 l -13.594 -13.59 v -38.314 c 0 -4.142 -3.358 -7.5 -7.5 -7.5 s -7.5 3.358 -7.5 7.5 v 41.421 c 0 1.989 0.791 3.897 2.197 5.304 l 26.396 26.39 v 5.437 h -21.091 c -1.989 0 -3.896 0.79 -5.303 2.197 l -22.264 22.263 c -2.929 2.929 -2.929 7.677 0 10.607 c 1.464 1.465 3.384 2.197 5.303 2.197 c 1.92 0 3.839 -0.732 5.303 -2.197 l 20.067 -20.066 h 15.928 l -24.988 32.566 c -1.005 1.31 -1.55 2.915 -1.55 4.566 v 43.641 c 0 4.142 3.358 7.5 7.5 7.5 s 7.5 -3.358 7.5 -7.5 v -41.095 l 13.961 -18.194 c 3.13 27.77 26.748 49.427 55.34 49.427 c 28.591 0 52.208 -21.657 55.338 -49.426 l 13.959 18.193 v 41.095 c 0 4.142 3.358 7.5 7.5 7.5 c 4.142 0 7.5 -3.358 7.5 -7.5 v -43.641 c 0 -1.651 -0.545 -3.256 -1.55 -4.566 l -24.987 -32.566 h 15.929 l 20.067 20.066 c 1.464 1.465 3.384 2.197 5.303 2.197 c 1.919 0 3.839 -0.732 5.303 -2.197 c 2.929 -2.93 2.929 -7.679 -2.84217e-14 -10.607 z m -133.013 -113.224 c -1.42109e-14 -4.537 1.088 -8.938 3.076 -12.876 v 22.821 c 0 14.102 11.474 25.576 25.576 25.576 c 14.102 0 25.574 -11.474 25.574 -25.576 v -22.82 c 1.988 3.938 3.076 8.339 3.076 12.875 v 48.544 h -57.302 v -48.544 z m -12.052 118.971 v -55.428 h 33.203 v 95.427 c -18.872 -3.531 -33.203 -20.118 -33.203 -39.999 z m 81.404 0 c 0 19.881 -14.33 36.467 -33.201 39.998 v -95.426 h 33.201 v 55.428 z" stroke-linecap="round"/>
</g>
</svg>