<?xml version="1.0" encoding="UTF-8" standalone="no"?>
<!-- Generator: Adobe Illustrator 16.0.0, SVG Export Plug-In . SVG Version: 6.00 Build 0)  -->

<svg
   version="1.1"
   id="Capa_1"
   x="0px"
   y="0px"
   width="532.88098"
   height="532.88098"
   viewBox="0 0 532.88098 532.88098"
   xml:space="preserve"
   sodipodi:docname="queenAnt.svg"
   inkscape:version="1.2.2 (732a01da63, 2022-12-09)"
   xmlns:inkscape="http://www.inkscape.org/namespaces/inkscape"
   xmlns:sodipodi="http://sodipodi.sourceforge.net/DTD/sodipodi-0.dtd"
   xmlns="http://www.w3.org/2000/svg"
   xmlns:svg="http://www.w3.org/2000/svg"><defs
   id="defs1219" /><sodipodi:namedview
   id="namedview1217"
   pagecolor="#ffffff"
   bordercolor="#000000"
   borderopacity="0.25"
   inkscape:showpageshadow="2"
   inkscape:pageopacity="0.0"
   inkscape:pagecheckerboard="0"
   inkscape:deskcolor="#d1d1d1"
   showgrid="false"
   inkscape:zoom="1.8557574"
   inkscape:cx="217.43144"
   inkscape:cy="364.81062"
   inkscape:window-width="1920"
   inkscape:window-height="1009"
   inkscape:window-x="-8"
   inkscape:window-y="-8"
   inkscape:window-maximized="1"
   inkscape:current-layer="layer1" />
<g
   id="g1184"
   transform="translate(49.277899,105.22901)"
   style="fill:#600060;fill-opacity:1">
	<path
   d="m 4.807,270.526 c 2.285,1.786 4.995,2.65 7.687,2.65 3.716,0 7.395,-1.65 9.859,-4.805 l 45.171,-57.819 87.178,18.864 c -0.006,0.427 -0.025,0.853 -0.025,1.281 0,9.373 1.508,18.568 4.404,27.155 L 54.435,293.856 c -4.001,1.376 -7.034,4.685 -8.061,8.788 l -21,84.001 c -1.674,6.696 2.397,13.483 9.096,15.158 1.018,0.254 2.037,0.376 3.041,0.376 5.6,0 10.697,-3.792 12.117,-9.471 l 19.354,-77.419 74.663,-25.688 c -5.116,12.766 -7.856,26.889 -7.856,41.546 0,53.213 36.505,96.505 81.375,96.505 44.869,0 81.375,-43.292 81.375,-96.505 0,-14.657 -2.74,-28.78 -7.857,-41.546 l 74.663,25.688 19.354,77.419 c 1.42,5.68 6.517,9.472 12.117,9.471 1.004,0 2.023,-0.122 3.041,-0.376 6.697,-1.674 10.77,-8.461 9.096,-15.158 l -21,-84.001 c -1.026,-4.104 -4.061,-7.412 -8.062,-8.788 L 275.246,257.852 c 2.896,-8.587 4.404,-17.782 4.404,-27.155 0,-0.429 -0.021,-0.854 -0.025,-1.281 l 87.178,-18.863 45.171,57.819 c 2.467,3.155 6.144,4.805 9.859,4.805 2.69,0 5.402,-0.865 7.688,-2.65 5.439,-4.25 6.404,-12.104 2.154,-17.545 l -50,-64 c -2.953,-3.78 -7.808,-5.537 -12.495,-4.522 l -93.569,20.247 c -1.107,-3.453 -2.432,-6.8 -3.961,-10.013 l 85.064,-66.303 31.189,31.776 c 4.835,4.927 12.75,5.001 17.677,0.165 4.927,-4.836 5,-12.75 0.166,-17.677 l -39.001,-39.734 c -4.45,-4.534 -11.594,-5.009 -16.605,-1.103 l -68.281,53.22 c 5.528,-12.305 8.565,-26.232 8.565,-40.729 0,-23.767 -8.143,-45.327 -21.3,-60.992 l 9.665,-30.347 c 2.096,-6.578 -1.539,-13.609 -8.117,-15.704 -6.581,-2.095 -13.608,1.54 -15.702,8.117 l -6.562,20.602 c -9.481,-5.308 -20.075,-8.284 -31.245,-8.284 -11.17,0 -21.762,2.976 -31.245,8.284 L 179.355,15.383 C 177.26,8.805 170.229,5.171 163.651,7.267 c -6.578,2.095 -10.212,9.126 -8.116,15.704 l 9.667,30.347 C 152.043,68.982 143.9,90.542 143.9,114.309 c 0,14.497 3.037,28.424 8.566,40.729 L 84.184,101.818 C 79.172,97.912 72.029,98.387 67.58,102.921 l -39,39.734 c -4.836,4.927 -4.762,12.841 0.165,17.677 4.927,4.835 12.842,4.762 17.677,-0.165 l 31.188,-31.776 85.066,66.303 c -1.531,3.213 -2.854,6.561 -3.962,10.013 L 65.144,184.46 c -4.684,-1.014 -9.54,0.742 -12.494,4.522 l -50,64 c -4.25,5.438 -3.285,13.294 2.157,17.544 z M 265.426,114.309 c 0,23.544 -10.35,44.718 -27.008,55.259 -3.388,2.144 -5.542,5.782 -5.792,9.784 -0.25,4.001 1.436,7.879 4.529,10.428 10.955,9.023 17.496,24.319 17.496,40.917 0,9.922 -2.341,19.479 -6.768,27.639 -2.722,5.014 -1.703,11.233 2.477,15.117 14.513,13.489 23.178,35.058 23.178,57.693 0,39.428 -25.289,71.505 -56.375,71.505 -31.085,0 -56.375,-32.077 -56.375,-71.505 0,-22.637 8.665,-44.205 23.178,-57.692 4.179,-3.884 5.199,-10.104 2.477,-15.118 -4.428,-8.159 -6.768,-17.716 -6.768,-27.639 0,-16.6 6.541,-31.895 17.497,-40.917 3.095,-2.549 4.779,-6.427 4.529,-10.429 -0.25,-4.002 -2.405,-7.64 -5.792,-9.784 -16.659,-10.54 -27.008,-31.714 -27.008,-55.259 0,-33.971 21.65,-61.608 48.262,-61.608 26.612,0 48.263,27.637 48.263,61.609 z"
   id="path1182"
   style="fill:#600060;fill-opacity:1" />
</g>
<g
   id="g1186"
   transform="translate(-1.0102944e-4,105.22901)">
</g>
<g
   id="g1188"
   transform="translate(-1.0102944e-4,105.22901)">
</g>
<g
   id="g1190"
   transform="translate(-1.0102944e-4,105.22901)">
</g>
<g
   id="g1192"
   transform="translate(-1.0102944e-4,105.22901)">
</g>
<g
   id="g1194"
   transform="translate(-1.0102944e-4,105.22901)">
</g>
<g
   id="g1196"
   transform="translate(-1.0102944e-4,105.22901)">
</g>
<g
   id="g1198"
   transform="translate(-1.0102944e-4,105.22901)">
</g>
<g
   id="g1200"
   transform="translate(-1.0102944e-4,105.22901)">
</g>
<g
   id="g1202"
   transform="translate(-1.0102944e-4,105.22901)">
</g>
<g
   id="g1204"
   transform="translate(-1.0102944e-4,105.22901)">
</g>
<g
   id="g1206"
   transform="translate(-1.0102944e-4,105.22901)">
</g>
<g
   id="g1208"
   transform="translate(-1.0102944e-4,105.22901)">
</g>
<g
   id="g1210"
   transform="translate(-1.0102944e-4,105.22901)">
</g>
<g
   id="g1212"
   transform="translate(-1.0102944e-4,105.22901)">
</g>
<g
   id="g1214"
   transform="translate(-1.0102944e-4,105.22901)">
</g>
<g
   inkscape:groupmode="layer"
   id="layer1"
   inkscape:label="Layer 1"
   transform="translate(-1.0102944e-4,105.22901)"><g
     style="fill:none;stroke:#ffe500;stroke-width:2;stroke-linecap:round;stroke-linejoin:round;stroke-opacity:1"
     id="g1706"
     transform="matrix(7.3650417,5.0823277,-5.0823277,7.3650417,300.78185,-135.9084)"><path
       d="M 2,4 5,16 H 19 L 22,4 16,11 12,4 8,11 Z m 3,16 h 14"
       id="path1697"
       style="stroke:#ffe500;stroke-opacity:1" /></g></g></svg>
