<svg xmlns="http://www.w3.org/2000/svg" xmlns:xlink="http://www.w3.org/1999/xlink" version="1.1" width="1080" height="1080" viewBox="0 0 1080 1080" xml:space="preserve">
<desc>Created with Fabric.js 3.5.0</desc>
<defs>
</defs>
<g transform="matrix(4.0944 0 0 4.0944 540.0029 540.0033)" id="107452">
<path style="stroke: none; stroke-width: 1; stroke-dasharray: none; stroke-linecap: butt; stroke-dashoffset: 0; stroke-linejoin: miter; stroke-miterlimit: 4; is-custom-font: none; font-file-url: none; fill: rgb(0,0,0); fill-rule: nonzero; opacity: 1;" vector-effect="non-scaling-stroke" transform=" translate(-119.898, -119.8985)" d="m 224.261 160.983 l -22.264 -22.263 c -1.406 -1.406 -3.313 -2.196 -5.303 -2.196 h -21.094 v -5.436 l 26.396 -26.391 c 1.407 -1.406 2.197 -3.314 2.197 -5.304 v -41.42 c 0 -4.143 -3.357 -7.5 -7.5 -7.5 c -4.143 0 -7.5 3.357 -7.5 7.5 v 38.314 l -13.594 13.591 v -6.073 c 0 -4.143 -3.357 -7.5 -7.5 -7.5 h -5.202 c -3.144 -18.072 -17.429 -32.357 -35.501 -35.501 v -45.804 h 8.286 c 4.143 0 7.5 -3.358 7.5 -7.5 c 0 -4.143 -3.357 -7.5 -7.5 -7.5 h -31.572 c -4.142 0 -7.5 3.357 -7.5 7.5 c 0 4.142 3.358 7.5 7.5 7.5 h 8.286 v 45.803 c -18.071 3.144 -32.356 17.429 -35.499 35.501 h -5.202 c -4.142 0 -7.5 3.357 -7.5 7.5 v 6.073 l -13.593 -13.591 v -38.313 c 0 -4.143 -3.358 -7.5 -7.5 -7.5 c -4.142 0 -7.5 3.357 -7.5 7.5 v 41.421 c 0 1.989 0.79 3.897 2.197 5.304 l 26.396 26.391 v 5.436 h -21.093 c -1.989 0 -3.896 0.79 -5.303 2.196 l -22.264 22.263 c -2.929 2.929 -2.929 7.678 0 10.606 c 1.464 1.465 3.384 2.197 5.303 2.197 c 1.919 0 3.839 -0.732 5.303 -2.196 l 20.067 -20.066 h 15.928 l -24.989 32.566 c -1.005 1.31 -1.55 2.914 -1.55 4.565 v 43.641 c 0 4.143 3.358 7.5 7.5 7.5 s 7.5 -3.357 7.5 -7.5 v -41.095 l 13.961 -18.194 c 3.129 27.77 26.748 49.427 55.34 49.427 c 28.591 0 52.208 -21.657 55.338 -49.426 l 13.959 18.193 v 41.095 c 0 4.143 3.357 7.5 7.5 7.5 c 4.143 0 7.5 -3.357 7.5 -7.5 v -43.641 c 0 -1.651 -0.545 -3.256 -1.55 -4.565 l -24.987 -32.566 h 15.929 l 20.067 20.066 c 1.464 1.464 3.384 2.196 5.303 2.196 c 1.919 0 3.839 -0.732 5.304 -2.197 c 2.929 -2.929 2.929 -7.678 0 -10.607 z m -104.364 -85.838 c 13.208 0 24.352 8.983 27.657 21.159 h -55.311 c 3.305 -12.176 14.447 -21.159 27.654 -21.159 z m -40.701 91.586 v -55.428 h 33.203 v 95.427 c -18.872 -3.531 -33.203 -20.118 -33.203 -39.999 z m 81.405 0 c 0 19.881 -14.33 36.467 -33.201 39.999 v -95.427 h 33.201 v 16.673 c 0 0.002 0 0.004 0 0.006 v 38.749 z" stroke-linecap="round"/>
</g>
</svg>