<svg xmlns="http://www.w3.org/2000/svg" xmlns:xlink="http://www.w3.org/1999/xlink" version="1.1" width="1080" height="1080" viewBox="0 0 1080 1080" xml:space="preserve">
<desc>Created with Fabric.js 3.5.0</desc>
<defs>
</defs>
<g transform="matrix(1.9176 0 0 1.9176 539.9994 539.9994)" id="365962">
<path style="stroke: none; stroke-width: 1; stroke-dasharray: none; stroke-linecap: butt; stroke-dashoffset: 0; stroke-linejoin: miter; stroke-miterlimit: 4; is-custom-font: none; font-file-url: none; fill: rgb(0,0,0); fill-rule: nonzero; opacity: 1;" vector-effect="non-scaling-stroke" transform=" translate(-256, -256.0015)" d="M 505.072 318.058 c -6.577 -38.667 -31.134 -55.313 -50.867 -68.688 c -12.979 -8.798 -24.005 -16.275 -30.76 -28.822 c -4.865 -22.515 -12.893 -43.839 -23.814 -63.189 c 11.904 -22.923 18.162 -48.475 18.162 -74.514 c 0 -16.972 -2.63 -33.72 -7.819 -49.778 l -31.853 10.291 c 4.113 12.728 6.197 26.015 6.197 39.488 c 0 14.488 -2.441 28.782 -7.15 42.296 c -14.405 -16.887 -30.855 -30.397 -48.696 -40.211 c 0.02 -0.695 0.056 -1.39 0.056 -2.085 c 0 -13.943 -3.965 -26.976 -10.812 -38.044 l 21.129 -21.131 l -23.671 -23.67 l -21.129 21.13 c -11.068 -6.849 -24.101 -10.813 -38.045 -10.813 c -13.944 0 -26.976 3.964 -38.045 10.812 L 196.827 0 l -23.67 23.67 l 21.129 21.129 c -6.849 11.069 -10.813 24.101 -10.813 38.046 c 0 0.696 0.032 1.391 0.052 2.087 c -17.84 9.814 -34.288 23.324 -48.693 40.21 c -4.709 -13.514 -7.15 -27.808 -7.15 -42.296 c 0 -13.472 2.084 -26.758 6.197 -39.488 l -31.853 -10.291 c -5.187 16.059 -7.819 32.806 -7.819 49.778 c 0 26.039 6.26 51.591 18.162 74.514 c -10.921 19.349 -18.948 40.674 -23.814 63.189 c -6.756 12.546 -17.782 20.023 -30.76 28.822 c -19.733 13.374 -44.29 30.02 -50.867 68.689 c -5.962 35.054 7.749 57.555 21.07 75.894 l 27.084 -19.673 c -10.908 -15.018 -18.95 -28.281 -15.153 -50.61 c 4.18 -24.585 18.508 -34.296 36.647 -46.591 c 2.111 -1.43 4.279 -2.903 6.473 -4.432 c 0.019 41.575 10.277 81.323 29.319 115.061 c -11.904 22.923 -18.162 48.476 -18.162 74.514 c 0 16.972 2.63 33.72 7.819 49.778 l 31.853 -10.291 c -4.113 -12.728 -6.197 -26.014 -6.197 -39.488 c 0 -14.488 2.441 -28.782 7.15 -42.296 c 32.493 38.092 75.392 59.033 121.169 59.033 s 88.676 -20.938 121.169 -59.03 c 4.709 13.514 7.15 27.808 7.15 42.296 c 0 13.472 -2.084 26.758 -6.197 39.488 l 31.853 10.291 c 5.187 -16.059 7.818 -32.806 7.818 -49.778 c 0 -26.039 -6.26 -51.591 -18.162 -74.514 c 19.042 -33.738 29.301 -73.485 29.319 -115.061 c 2.194 1.529 4.362 3 6.473 4.432 c 18.139 12.295 32.467 22.006 36.647 46.591 c 3.797 22.329 -4.245 35.592 -15.153 50.61 l 27.084 19.673 C 497.323 375.613 511.034 353.112 505.072 318.058 z M 256.002 43.791 c 17.348 0 32.083 11.374 37.16 27.054 c -12.063 -3.123 -24.5 -4.738 -37.16 -4.738 c -12.66 0 -25.097 1.615 -37.16 4.738 C 223.919 55.165 238.654 43.791 256.002 43.791 z M 239.265 444.235 c -69.046 -10.286 -122.741 -83.36 -122.741 -171.702 c 0 -14.19 1.395 -27.98 4.007 -41.185 c 1.292 -2.841 2.468 -5.844 3.506 -9.027 h 115.228 V 444.235 z M 133.976 188.847 c 23.818 -53.186 69.585 -89.265 122.026 -89.265 s 98.207 36.079 122.025 89.265 H 133.976 z M 272.739 444.235 V 222.322 h 115.228 c 1.038 3.183 2.213 6.186 3.506 9.027 c 2.612 13.205 4.007 26.995 4.007 41.185 C 395.479 360.875 341.783 433.95 272.739 444.235 z" stroke-linecap="round"/>
</g>
</svg>