<?xml version="1.0" encoding="UTF-8" standalone="no"?>
<svg
   version="1.1"
   width="1080"
   height="1080"
   viewBox="0 0 1080 1080"
   xml:space="preserve"
   id="svg1809"
   sodipodi:docname="fire.svg"
   inkscape:version="1.2.2 (732a01da63, 2022-12-09)"
   xmlns:inkscape="http://www.inkscape.org/namespaces/inkscape"
   xmlns:sodipodi="http://sodipodi.sourceforge.net/DTD/sodipodi-0.dtd"
   xmlns="http://www.w3.org/2000/svg"
   xmlns:svg="http://www.w3.org/2000/svg"><sodipodi:namedview
   id="namedview1811"
   pagecolor="#ffffff"
   bordercolor="#000000"
   borderopacity="0.25"
   inkscape:showpageshadow="2"
   inkscape:pageopacity="0.0"
   inkscape:pagecheckerboard="0"
   inkscape:deskcolor="#d1d1d1"
   showgrid="false"
   inkscape:zoom="0.7462963"
   inkscape:cx="539.33002"
   inkscape:cy="540"
   inkscape:window-width="1920"
   inkscape:window-height="1009"
   inkscape:window-x="-8"
   inkscape:window-y="-8"
   inkscape:window-maximized="1"
   inkscape:current-layer="svg1809" />
<desc
   id="desc1794">Created with Fabric.js 3.5.0</desc>
<defs
   id="defs1796">
</defs>
<g
   transform="matrix(-20.4545,0,0,20.4545,540.0011,540.0011)"
   id="106774">
<g
   vector-effect="non-scaling-stroke"
   id="g1806">
		<g
   id="g1800">
<rect
   style="opacity:1;fill:#ffffff;fill-opacity:0.01;fill-rule:nonzero;stroke:none;stroke-width:1;stroke-linecap:butt;stroke-linejoin:miter;stroke-miterlimit:4;stroke-dasharray:none;stroke-dashoffset:0"
   x="-24"
   y="-24"
   rx="0"
   ry="0"
   width="48"
   height="48"
   id="rect1798" />
</g>
		<g
   transform="translate(-1e-4)"
   id="g1804">
<path
   style="opacity:1;fill:#ffa82f;fill-rule:nonzero;stroke:#000000;stroke-width:4;stroke-linecap:butt;stroke-linejoin:round;stroke-miterlimit:4;stroke-dasharray:none;stroke-dashoffset:0"
   transform="translate(-23.9999,-24)"
   d="m 24,44 c 8.2347,0 14.9998,-6.5258 14.9998,-14.9019 0,-2.0563 -0.1045,-4.2606 -1.2443,-7.6865 -1.1398,-3.4258 -1.3694,-3.868 -2.5746,-5.9837 -0.5149,4.3175 -3.2699,6.1169 -3.9698,6.6547 0,-0.5595 -1.6666,-6.7467 -4.1935,-10.4487 C 24.537,8 21.1634,5.61592 19.1853,4 c 0,3.06977 -0.8634,7.6339 -2.0999,9.9594 -1.2365,2.3255 -1.4687,2.4102 -3.0132,4.1408 -1.5444,1.7306 -2.2533,2.2651 -3.5448,4.3649 C 9.23596,24.565 9,27.3618 9,29.4181 9,37.7942 15.7653,44 24,44 Z"
   stroke-linecap="round"
   id="path1802" />
</g>
</g>
</g>
</svg>
