<svg xmlns="http://www.w3.org/2000/svg" xmlns:xlink="http://www.w3.org/1999/xlink" version="1.1" width="1080" height="1080" viewBox="0 0 1080 1080" xml:space="preserve">
<desc>Created with Fabric.js 3.5.0</desc>
<defs>
</defs>
<g transform="matrix(2.4663 0 0 2.4663 539.9995 539.9996)" id="545144">
<path style="stroke: none; stroke-width: 1; stroke-dasharray: none; stroke-linecap: butt; stroke-dashoffset: 0; stroke-linejoin: miter; stroke-miterlimit: 4; is-custom-font: none; font-file-url: none; fill: rgb(0,0,0); fill-rule: nonzero; opacity: 1;" vector-effect="non-scaling-stroke" transform=" translate(-527.118, -687.5727)" d="m 426.11371 859.21367 l -4.4667 -3.43904 l 7.04018 -11.68663 c 3.87209 -6.42763 6.77783 -12.30918 6.45717 -13.07011 c -0.32067 -0.76094 -18.00978 -31.55426 -39.30914 -68.42964 l -38.72615 -67.04614 l -14.51881 0 l -14.51884 0 l 0 -6.87942 l 0 -6.87943 l 14.31388 -0.58482 l 14.31386 -0.58482 l 39.19739 -67.67584 l 39.19737 -67.67585 l -3.47217 -5.97139 c -11.88842 -20.44551 -11.39243 -18.91212 -7.12991 -22.04292 c 6.00096 -4.40767 7.64178 -3.52008 14.13607 7.64689 l 6.05705 10.41509 l 81.54971 0.51932 l 81.54971 0.51931 l 6.56955 -11.95004 l 6.56958 -11.95004 l 5.89798 3.04997 l 5.89801 3.04997 l -7.10498 12.70488 l -7.10497 12.70487 l 39.50683 68.3279 l 39.50682 68.32788 l 14.32071 0.58482 l 14.32071 0.58482 l 0 6.87943 l 0 6.87942 l -14.50089 0 l -14.5009 0 l -38.99574 67.56645 l -38.99575 67.56643 l 6.72069 11.15666 c 3.69637 6.13615 6.72069 11.90448 6.72069 12.8185 c 0 0.91402 -2.18392 3.09281 -4.85314 4.84177 c -4.81171 3.15274 -4.9149 3.07824 -12.08692 -8.72817 l -7.23378 -11.90808 l -80.96735 0.0237 l -80.96738 0.0237 l -6.54704 11.91919 c -3.60088 6.55554 -7.18372 11.89924 -7.96187 11.8749 c -0.77815 -0.0243 -3.42483 -1.59184 -5.88153 -3.48332 z m 165.10145 -50.16607 l -9.35933 -15.87482 l -54.01334 -0.049 l -54.01337 -0.049 l -8.47703 14.43088 c -4.66237 7.93698 -8.848 15.10266 -9.30141 15.92372 c -0.45341 0.82107 31.87896 1.49285 71.84971 1.49285 l 72.6741 0 l -9.35933 -15.8748 z m -138.14041 -6.7769 c 4.59685 -8.07942 8.35789 -15.15626 8.35789 -15.72631 c 0 -0.57007 -11.58033 -21.05485 -25.73408 -45.52176 l -25.73407 -44.48528 l -18.05618 -0.57232 c -9.93089 -0.31477 -18.05617 0.0575 -18.05617 0.82708 c 0 2.2368 68.39438 120.16843 69.69163 120.16843 c 0.64519 0 4.93414 -6.61044 9.53098 -14.68984 z M 647.2727 755.74641 c 17.18821 -29.83611 31.77904 -55.62284 32.42409 -57.30381 c 1.01148 -2.63587 -1.3444 -2.97714 -17.12621 -2.48078 l -18.29903 0.57553 l -25.77054 44.54832 l -25.77056 44.54832 l 9.23789 15.75734 c 8.20275 13.99167 9.50768 15.35649 11.6455 12.17996 c 1.32417 -1.96755 16.47067 -27.98875 33.65886 -57.82488 z m -74.37396 24.09194 c 0 -0.71159 -3.80677 -7.88438 -8.45948 -15.93949 l -8.45948 -14.64567 l -28.70093 0.51336 l -28.70093 0.51338 l -8.62031 14.60027 c -4.74117 8.03015 -8.62031 14.9719 -8.62031 15.42611 c 0 0.45422 20.60132 0.82584 45.78072 0.82584 c 25.17939 0 45.78072 -0.58221 45.78072 -1.2938 z M 487.15115 740.9083 c -0.0866 -1.41415 -5.69894 -11.97612 -12.47176 -23.47106 l -12.3142 -20.89989 l -18.38048 -0.57232 c -10.10925 -0.31477 -18.38046 -0.13416 -18.38046 0.4015 c 0 0.53557 6.38637 11.98949 14.19193 25.45312 c 7.80557 13.46365 17.73813 30.59432 22.07239 38.06818 l 7.88046 13.58883 l 8.77984 -14.9986 c 4.82891 -8.24923 8.70893 -16.15564 8.62228 -17.56976 z m 119.65173 -5.84357 c 11.45852 -19.86332 21.14383 -36.91656 21.52291 -37.89609 c 0.38468 -0.99405 -7.49373 -1.52698 -17.83026 -1.20614 l -18.51947 0.57485 l -8.1718 13.93326 c -4.49451 7.66329 -10.25289 17.66439 -12.79645 22.22469 l -4.62461 8.2914 l 8.73154 15.07215 c 4.80236 8.28967 9.20921 15.08313 9.79301 15.09657 c 0.58379 0.0139 10.4366 -16.22739 21.89513 -36.09069 z m -61.52122 -3.19661 c -1.03461 -1.91582 -5.47564 -9.62092 -9.86895 -17.12245 l -7.98784 -13.63913 l -4.7427 7.66773 c -2.60849 4.21726 -7.19385 11.92236 -10.18968 17.12245 l -5.44695 9.45471 l 20.0586 0 c 18.49307 0 19.91179 -0.27185 18.17752 -3.48331 z m -39.28187 -20.89989 l 9.10766 -15.42612 l -18.99301 0 c -10.44616 0 -18.62085 0.67179 -18.16597 1.49285 c 7.85566 14.17983 17.82176 30.51421 18.31064 30.011 c 0.34817 -0.35839 4.73147 -7.59337 9.74068 -16.07773 z m 60.98903 1.99046 c 4.66237 -7.93698 8.848 -15.10266 9.30141 -15.92373 c 0.45341 -0.82106 -7.6948 -1.49285 -18.10713 -1.49285 l -18.93152 0 l 9.35933 15.87481 c 5.14762 8.73116 9.48119 15.89683 9.63009 15.92372 c 0.14889 0.0269 4.08546 -6.44496 8.74782 -14.38195 z m -131.88011 -77.17456 l 26.42341 -45.74971 l -9.23866 -16.01714 c -5.08129 -8.80942 -9.46584 -15.74825 -9.74347 -15.4196 c -0.37845 0.44797 -65.43938 113.25685 -70.08397 121.51832 c -0.46161 0.82107 7.49888 1.47597 17.68998 1.45533 l 18.52929 -0.0376 l 26.42342 -45.74968 z m 38.99918 23.02149 c 7.26044 -12.54177 13.20081 -23.31919 13.20081 -23.94981 c 0 -1.87169 -16.83049 -30.83341 -17.9142 -30.82656 c -1.19853 0.008 -43.79025 74.05019 -43.79025 76.12618 c 0 0.7994 7.94314 1.45342 17.65142 1.45342 l 17.65139 0 l 13.20083 -22.80323 z m 34.85991 11.35805 c -3.57478 -6.29485 -8.00868 -13.96383 -9.85311 -17.04221 l -3.35354 -5.59703 l -9.20238 15.95424 c -5.06132 8.77483 -9.2024 16.44382 -9.2024 17.04221 c 0 0.59838 8.57499 1.08797 19.05551 1.08797 l 19.0555 0 l -6.49958 -11.44518 z m 67.91187 10.35721 c 0 -0.59839 -4.13673 -8.25983 -9.19273 -17.02545 c -10.41977 -18.06483 -8.70688 -18.43715 -21.52068 4.67778 l -7.44806 13.43564 l 19.08072 0 c 10.49442 0 19.08075 -0.48959 19.08075 -1.08797 z m 51.75211 -0.36545 c 0 -2.32806 -42.66679 -76.11707 -44.03044 -76.14732 c -1.48349 -0.0328 -17.674 27.59663 -17.674 30.16117 c 0 0.98735 5.89689 12.06519 13.10419 24.61739 l 13.10421 22.82218 l 17.74801 0 c 9.76143 0 17.74803 -0.65402 17.74803 -1.45342 z m 47.38884 -10.14295 c -28.10277 -49.49517 -64.48553 -111.76493 -65.30303 -111.76733 c -0.54738 -0.002 -4.88622 6.82341 -9.64186 15.16671 c -6.24465 10.95556 -8.17994 16.13834 -6.96663 18.65682 c 0.924 1.91797 12.87637 22.83617 26.56082 46.48492 l 24.88082 42.99769 l 18.52708 0.0289 l 18.52708 0.0289 l -6.58428 -11.59637 z m -138.57692 -12.84655 l 9.33047 -16.36163 l -19.04175 -0.5728 c -10.47296 -0.31503 -19.40303 -0.21148 -19.84461 0.2301 c -0.93843 0.93843 17.75549 33.09275 19.23021 33.07677 c 0.54738 -0.006 5.19394 -7.37354 10.32568 -16.37244 z m 26.13814 -45.22339 l 9.02181 -15.92372 l -45.63318 0 c -25.09825 0 -45.63317 0.41608 -45.63317 0.92463 c 0 0.50854 4.09777 7.67422 9.10616 15.92372 l 9.10619 14.9991 l 27.50519 0 l 27.50522 0 l 9.02178 -15.92373 z m 26.21368 -45.2831 l 9.0322 -15.42611 l -35.72466 -0.54202 c -19.64857 -0.2981 -52.2778 -0.2981 -72.50942 0 l -36.78474 0.54202 l 9.2739 15.42611 l 9.2739 15.42611 l 54.20331 0 l 54.20332 0 l 9.03219 -15.42611 z" stroke-linecap="round"/>
</g>
</svg>